<svg width="22" height="22" viewBox="0 0 22 22" fill="none" xmlns="http://www.w3.org/2000/svg">
<path d="M12.8332 9.07484V7.5165C13.3373 7.30262 13.853 7.1422 14.38 7.03525C14.9071 6.92831 15.4609 6.87484 16.0415 6.87484C16.4387 6.87484 16.8283 6.90539 17.2103 6.9665C17.5922 7.02762 17.9665 7.104 18.3332 7.19567V8.66234C17.9665 8.52484 17.596 8.42171 17.2217 8.35296C16.8474 8.28421 16.454 8.24984 16.0415 8.24984C15.4609 8.24984 14.9033 8.32241 14.3686 8.46755C13.8339 8.61269 13.3221 8.81512 12.8332 9.07484ZM12.8332 14.1165V12.5582C13.3373 12.3443 13.853 12.1839 14.38 12.0769C14.9071 11.97 15.4609 11.9165 16.0415 11.9165C16.4387 11.9165 16.8283 11.9471 17.2103 12.0082C17.5922 12.0693 17.9665 12.1457 18.3332 12.2373V13.704C17.9665 13.5665 17.596 13.4634 17.2217 13.3946C16.8474 13.3259 16.454 13.2915 16.0415 13.2915C15.4609 13.2915 14.9033 13.3603 14.3686 13.4978C13.8339 13.6353 13.3221 13.8415 12.8332 14.1165ZM12.8332 11.5957V10.0373C13.3373 9.82345 13.853 9.66303 14.38 9.55609C14.9071 9.44914 15.4609 9.39567 16.0415 9.39567C16.4387 9.39567 16.8283 9.42623 17.2103 9.48734C17.5922 9.54845 17.9665 9.62484 18.3332 9.71651V11.1832C17.9665 11.0457 17.596 10.9425 17.2217 10.8738C16.8474 10.805 16.454 10.7707 16.0415 10.7707C15.4609 10.7707 14.9033 10.8432 14.3686 10.9884C13.8339 11.1335 13.3221 11.3359 12.8332 11.5957ZM5.95817 14.6665C6.67623 14.6665 7.37518 14.7467 8.05504 14.9071C8.73491 15.0675 9.41095 15.3082 10.0832 15.629V6.59984C9.45678 6.23317 8.7922 5.95817 8.08942 5.77484C7.38664 5.5915 6.67623 5.49984 5.95817 5.49984C5.40817 5.49984 4.86199 5.55331 4.31963 5.66025C3.77727 5.7672 3.254 5.92762 2.74984 6.1415V15.2165C3.28456 15.0332 3.81546 14.8957 4.34255 14.804C4.86963 14.7123 5.40817 14.6665 5.95817 14.6665ZM11.9165 15.629C12.5887 15.3082 13.2648 15.0675 13.9446 14.9071C14.6245 14.7467 15.3234 14.6665 16.0415 14.6665C16.5915 14.6665 17.13 14.7123 17.6571 14.804C18.1842 14.8957 18.7151 15.0332 19.2498 15.2165V6.1415C18.7457 5.92762 18.2224 5.7672 17.68 5.66025C17.1377 5.55331 16.5915 5.49984 16.0415 5.49984C15.3234 5.49984 14.613 5.5915 13.9103 5.77484C13.2075 5.95817 12.5429 6.23317 11.9165 6.59984V15.629ZM10.9998 18.3332C10.2665 17.7526 9.47206 17.3019 8.6165 16.9811C7.76095 16.6603 6.87484 16.4998 5.95817 16.4998C5.3165 16.4998 4.6863 16.5839 4.06755 16.7519C3.4488 16.92 2.85678 17.1568 2.2915 17.4623C1.97067 17.6304 1.6613 17.6228 1.36338 17.4394C1.06546 17.2561 0.916504 16.9887 0.916504 16.6373V5.5915C0.916504 5.42345 0.958518 5.26303 1.04255 5.11025C1.12657 4.95748 1.25261 4.84289 1.42067 4.7665C2.12345 4.39984 2.85678 4.12484 3.62067 3.9415C4.38456 3.75817 5.16373 3.6665 5.95817 3.6665C6.84428 3.6665 7.71129 3.78109 8.55921 4.01025C9.40713 4.23942 10.2207 4.58317 10.9998 5.0415C11.779 4.58317 12.5925 4.23942 13.4405 4.01025C14.2884 3.78109 15.1554 3.6665 16.0415 3.6665C16.8359 3.6665 17.6151 3.75817 18.379 3.9415C19.1429 4.12484 19.8762 4.39984 20.579 4.7665C20.7471 4.84289 20.8731 4.95748 20.9571 5.11025C21.0412 5.26303 21.0832 5.42345 21.0832 5.5915V16.6373C21.0832 16.9887 20.9342 17.2561 20.6363 17.4394C20.3384 17.6228 20.029 17.6304 19.7082 17.4623C19.1429 17.1568 18.5509 16.92 17.9321 16.7519C17.3134 16.5839 16.6832 16.4998 16.0415 16.4998C15.1248 16.4998 14.2387 16.6603 13.3832 16.9811C12.5276 17.3019 11.7332 17.7526 10.9998 18.3332Z" fill="#FECC00"/>
</svg>
