<svg width="46" height="46" viewBox="0 0 46 46" fill="none" xmlns="http://www.w3.org/2000/svg">
<g clip-path="url(#clip0_1_6493)">
<g filter="url(#filter0_d_1_6493)">
<path d="M22.9993 40.8728C22.5521 40.8728 22.1049 40.793 21.6577 40.6333C21.2105 40.4735 20.8112 40.2339 20.4598 39.9145C18.3834 37.9978 16.5466 36.1291 14.9493 34.3083C13.3521 32.4874 12.0184 30.7225 10.9483 29.0135C9.87817 27.3044 9.06359 25.6593 8.50456 24.078C7.94553 22.4968 7.66602 20.9874 7.66602 19.5499C7.66602 14.7583 9.20733 10.9409 12.29 8.09784C15.3726 5.25478 18.9424 3.83325 22.9993 3.83325C27.0563 3.83325 30.6261 5.25478 33.7087 8.09784C36.7914 10.9409 38.3327 14.7583 38.3327 19.5499C38.3327 20.9874 38.0532 22.4968 37.4941 24.078C36.9351 25.6593 36.1205 27.3044 35.0504 29.0135C33.9803 30.7225 32.6466 32.4874 31.0494 34.3083C29.4521 36.1291 27.6153 37.9978 25.5389 39.9145C25.1875 40.2339 24.7882 40.4735 24.341 40.6333C23.8938 40.793 23.4466 40.8728 22.9993 40.8728ZM22.9993 22.9999C24.0535 22.9999 24.9559 22.6246 25.7066 21.8739C26.4573 21.1232 26.8327 20.2208 26.8327 19.1666C26.8327 18.1124 26.4573 17.21 25.7066 16.4593C24.9559 15.7086 24.0535 15.3333 22.9993 15.3333C21.9452 15.3333 21.0428 15.7086 20.2921 16.4593C19.5414 17.21 19.166 18.1124 19.166 19.1666C19.166 20.2208 19.5414 21.1232 20.2921 21.8739C21.0428 22.6246 21.9452 22.9999 22.9993 22.9999Z" fill="#FECC00"/>
</g>
</g>
<defs>
<filter id="filter0_d_1_6493" x="2.66602" y="2.83325" width="40.6665" height="47.0396" filterUnits="userSpaceOnUse" color-interpolation-filters="sRGB">
<feFlood flood-opacity="0" result="BackgroundImageFix"/>
<feColorMatrix in="SourceAlpha" type="matrix" values="0 0 0 0 0 0 0 0 0 0 0 0 0 0 0 0 0 0 127 0" result="hardAlpha"/>
<feOffset dy="4"/>
<feGaussianBlur stdDeviation="2.5"/>
<feComposite in2="hardAlpha" operator="out"/>
<feColorMatrix type="matrix" values="0 0 0 0 0.0708333 0 0 0 0 0.0708333 0 0 0 0 0.0708333 0 0 0 0.18 0"/>
<feBlend mode="normal" in2="BackgroundImageFix" result="effect1_dropShadow_1_6493"/>
<feBlend mode="normal" in="SourceGraphic" in2="effect1_dropShadow_1_6493" result="shape"/>
</filter>
<clipPath id="clip0_1_6493">
<rect width="46" height="46" fill="white"/>
</clipPath>
</defs>
</svg>
