<svg width="35" height="35" viewBox="0 0 35 35" fill="none" xmlns="http://www.w3.org/2000/svg">
<path d="M5.83333 26.25C5.42014 26.25 5.07378 26.1102 4.79427 25.8307C4.51476 25.5512 4.375 25.2049 4.375 24.7917C4.375 24.3785 4.51476 24.0321 4.79427 23.7526C5.07378 23.4731 5.42014 23.3333 5.83333 23.3333H29.1667C29.5799 23.3333 29.9262 23.4731 30.2057 23.7526C30.4852 24.0321 30.625 24.3785 30.625 24.7917C30.625 25.2049 30.4852 25.5512 30.2057 25.8307C29.9262 26.1102 29.5799 26.25 29.1667 26.25H5.83333ZM5.83333 18.9583C5.42014 18.9583 5.07378 18.8186 4.79427 18.5391C4.51476 18.2595 4.375 17.9132 4.375 17.5C4.375 17.0868 4.51476 16.7405 4.79427 16.4609C5.07378 16.1814 5.42014 16.0417 5.83333 16.0417H29.1667C29.5799 16.0417 29.9262 16.1814 30.2057 16.4609C30.4852 16.7405 30.625 17.0868 30.625 17.5C30.625 17.9132 30.4852 18.2595 30.2057 18.5391C29.9262 18.8186 29.5799 18.9583 29.1667 18.9583H5.83333ZM5.83333 11.6667C5.42014 11.6667 5.07378 11.5269 4.79427 11.2474C4.51476 10.9679 4.375 10.6215 4.375 10.2083C4.375 9.79514 4.51476 9.44878 4.79427 9.16927C5.07378 8.88976 5.42014 8.75 5.83333 8.75H29.1667C29.5799 8.75 29.9262 8.88976 30.2057 9.16927C30.4852 9.44878 30.625 9.79514 30.625 10.2083C30.625 10.6215 30.4852 10.9679 30.2057 11.2474C29.9262 11.5269 29.5799 11.6667 29.1667 11.6667H5.83333Z" fill="white"/>
</svg>
