<svg width="43" height="30" viewBox="0 0 43 30" fill="none" xmlns="http://www.w3.org/2000/svg">
<path d="M34.0171 11.1688C33.9297 10.2391 34.0171 7.72254 36.4358 4.22984C36.5256 4.10141 36.5668 3.94581 36.552 3.79037C36.5373 3.63494 36.4676 3.48961 36.3552 3.37991L34.3396 1.34804C33.7752 0.770347 33.5132 0.511383 33.1369 0.172737C33.0139 0.0644618 32.8549 0.00463867 32.6901 0.00463867C32.5254 0.00463867 32.3664 0.0644618 32.2433 0.172737C29.3949 2.74758 27.169 5.92261 25.7304 9.46278C24.2917 13.003 23.6772 16.8176 23.9322 20.6243C24.3286 26.0559 28.3397 30.0001 33.4661 30.0001C35.9551 30.0123 38.3502 29.062 40.1397 27.3523C41.9292 25.6426 42.9713 23.309 43.0432 20.8502C43.1151 18.3914 42.2113 16.0023 40.5247 14.1932C38.8381 12.3842 36.5026 11.2987 34.0171 11.1688ZM33.4661 28.6721C29.0654 28.6721 25.6186 25.2458 25.2693 20.5247C25.0416 17.0256 25.5845 13.5194 26.8604 10.2477C28.1363 6.97605 30.115 4.01674 32.6599 1.5738L33.3318 2.27765L34.9913 3.93768C32.0552 8.43967 32.6129 11.68 32.8615 12.1116C32.9178 12.2222 33.0043 12.3149 33.1111 12.3794C33.218 12.444 33.3409 12.4777 33.4661 12.4769C35.5986 12.5372 37.6232 13.4168 39.1099 14.9288C40.5967 16.4408 41.4284 18.4661 41.4284 20.5745C41.4284 22.6828 40.5967 24.7081 39.1099 26.2201C37.6232 27.7321 35.5986 28.6117 33.4661 28.6721Z" fill="#FECC00"/>
<path d="M10.1519 11.1687C10.0645 10.2458 10.1519 7.72917 12.5706 4.22984C12.6613 4.10215 12.7035 3.947 12.69 3.79159C12.6765 3.63618 12.6081 3.49043 12.4967 3.3799C11.5023 2.40381 10.8842 1.77964 10.4811 1.34803C9.9167 0.77698 9.65467 0.511376 9.2717 0.172731C9.14909 0.066277 8.99147 0.00756836 8.82827 0.00756836C8.66506 0.00756836 8.50744 0.066277 8.38483 0.172731C5.53444 2.74635 3.30672 5.92101 1.86683 9.46136C0.426937 13.0017 -0.188202 16.817 0.0670155 20.6243C0.47014 26.0559 4.48123 30.0001 9.60092 30.0001C12.0899 30.0122 14.485 29.062 16.2745 27.3523C18.064 25.6426 19.106 23.309 19.178 20.8502C19.2499 18.3914 18.346 16.0022 16.6595 14.1932C14.9729 12.3842 12.6374 11.2987 10.1519 11.1687ZM9.60092 28.6721C5.20014 28.6721 1.75342 25.2458 1.40405 20.5247C0.671703 10.1196 6.89998 3.35998 8.78795 1.57379L9.50014 2.27764C9.86967 2.65613 10.3803 3.16742 11.153 3.93767C8.1967 8.43966 8.7342 11.68 8.99623 12.1116C9.05258 12.2222 9.13905 12.3149 9.2459 12.3794C9.35274 12.444 9.47571 12.4777 9.60092 12.4768C11.7334 12.5372 13.758 13.4168 15.2447 14.9288C16.7314 16.4408 17.5631 18.4661 17.5631 20.5745C17.5631 22.6828 16.7314 24.7081 15.2447 26.2201C13.758 27.7321 11.7334 28.6117 9.60092 28.6721Z" fill="#FECC00"/>
</svg>
