<svg width="328" height="334" viewBox="0 0 328 334" fill="none" xmlns="http://www.w3.org/2000/svg">
<g opacity="0.33">
<path d="M132.377 304.692C130.903 304.952 129.566 305.456 128.372 306.208L128.372 306.208C127.156 306.974 126.134 307.953 125.308 309.142L125.306 309.144C124.473 310.357 123.908 311.732 123.609 313.261C123.306 314.807 123.312 316.285 123.635 317.689C123.952 319.1 124.528 320.392 125.364 321.559C126.183 322.724 127.229 323.706 128.498 324.504C129.754 325.302 131.193 325.857 132.807 326.173C134.403 326.485 135.944 326.514 137.426 326.252C138.902 325.992 140.251 325.479 141.466 324.713C142.682 323.947 143.704 322.968 144.53 321.779L144.53 321.779L144.534 321.774C145.344 320.576 145.896 319.21 146.195 317.683C146.494 316.157 146.498 314.683 146.199 313.268L146.199 313.268L146.198 313.262C145.882 311.851 145.315 310.562 144.498 309.398L144.495 309.394C143.658 308.226 142.603 307.243 141.334 306.445L141.332 306.444C140.04 305.64 138.584 305.082 136.969 304.766C135.373 304.453 133.841 304.426 132.377 304.692ZM132.377 304.692C132.377 304.692 132.378 304.692 132.378 304.692L132.465 305.184M132.377 304.692C132.377 304.692 132.376 304.692 132.376 304.692L132.465 305.184M132.465 305.184C133.862 304.93 135.331 304.954 136.873 305.256C138.434 305.562 139.832 306.099 141.068 306.868L125.772 321.269C124.975 320.156 124.425 318.926 124.122 317.578C123.816 316.249 123.809 314.842 124.1 313.357C124.387 311.89 124.927 310.58 125.719 309.427C126.507 308.293 127.48 307.361 128.638 306.631C129.774 305.916 131.05 305.434 132.465 305.184ZM133.718 309.622L133.718 309.622L133.723 309.621C134.444 309.478 135.216 309.483 136.043 309.645C136.87 309.807 137.598 310.095 138.233 310.506C138.869 310.917 139.393 311.429 139.808 312.045C140.204 312.658 140.482 313.347 140.639 314.118C140.772 314.9 140.757 315.721 140.588 316.585C140.415 317.471 140.118 318.235 139.706 318.887C139.27 319.542 138.745 320.073 138.128 320.488C137.509 320.904 136.838 321.184 136.112 321.328C135.37 321.468 134.587 321.461 133.761 321.299C132.934 321.137 132.206 320.849 131.571 320.438C130.935 320.027 130.422 319.517 130.027 318.908L130.027 318.908L130.022 318.901C129.609 318.285 129.332 317.598 129.194 316.834L129.194 316.834L129.192 316.824C129.038 316.062 129.043 315.242 129.216 314.359C129.389 313.475 129.694 312.714 130.124 312.066L130.124 312.067L130.13 312.058C130.546 311.402 131.061 310.87 131.676 310.456C132.293 310.041 132.973 309.763 133.718 309.622ZM137.188 328.172L137.188 328.172L137.181 328.163C136.78 327.626 136.235 327.289 135.572 327.159C134.908 327.029 134.28 327.137 133.72 327.493C133.144 327.86 132.794 328.42 132.658 329.119C132.521 329.818 132.633 330.468 133.029 331.025C133.413 331.566 133.953 331.903 134.617 332.033C135.281 332.163 135.913 332.056 136.486 331.711L136.487 331.711L136.497 331.704C137.073 331.338 137.422 330.778 137.559 330.079C137.696 329.38 137.584 328.729 137.188 328.172ZM131.463 327.051C131.078 326.51 130.538 326.174 129.874 326.044C129.212 325.914 128.587 326.021 128.028 326.375C127.433 326.735 127.07 327.293 126.932 327.998C126.794 328.703 126.92 329.357 127.335 329.915C127.719 330.453 128.258 330.788 128.92 330.917C129.584 331.047 130.211 330.939 130.771 330.583C131.348 330.217 131.697 329.657 131.834 328.958C131.971 328.259 131.859 327.608 131.463 327.051Z" stroke="#006AA7"/>
<path d="M120.842 301.523L121.004 301.05L120.531 300.888L116.289 299.436L115.816 299.274L115.654 299.747L108.747 319.923L108.585 320.396L109.058 320.558L113.3 322.01L113.773 322.172L113.935 321.699L120.842 301.523Z" stroke="#006AA7"/>
<path d="M108.466 296.686L108.466 296.686L108.459 296.68C107.444 295.857 106.318 295.159 105.085 294.584C103.64 293.911 102.3 293.525 101.07 293.449C99.836 293.365 98.7443 293.542 97.8178 294.008L97.8178 294.008L97.8122 294.011C96.8761 294.498 96.1781 295.232 95.7277 296.198C95.3307 297.051 95.1539 297.864 95.2558 298.619C95.3437 299.346 95.5982 300.004 96.0201 300.585C96.3978 301.148 96.8721 301.662 97.4384 302.127C97.9886 302.579 98.5603 302.987 99.1534 303.351C99.694 303.707 100.186 304.05 100.631 304.381C101.059 304.699 101.359 304.992 101.551 305.255C101.66 305.416 101.673 305.556 101.585 305.744C101.503 305.921 101.337 306.066 100.93 306.104C100.536 306.14 99.9193 306.001 99.0375 305.591C98.4318 305.309 97.8404 304.943 97.2633 304.493L97.2575 304.488L97.2516 304.484C96.6714 304.058 96.1489 303.511 95.6859 302.837L95.3746 302.384L94.9529 302.737L92.2511 304.998L91.9063 305.286L92.1566 305.66C92.6698 306.425 93.3974 307.153 94.322 307.846C95.241 308.535 96.1946 309.111 97.183 309.571C98.5791 310.222 99.8988 310.586 101.137 310.644C102.357 310.719 103.443 310.528 104.376 310.043L104.376 310.044L104.383 310.04C105.301 309.543 105.99 308.796 106.446 307.818C106.843 306.967 107.03 306.156 106.958 305.4L106.958 305.4L106.957 305.387C106.869 304.659 106.619 303.992 106.205 303.394C105.811 302.823 105.328 302.304 104.76 301.838L104.76 301.837L104.749 301.829C104.196 301.399 103.639 301 103.077 300.63L103.076 300.629C102.512 300.261 102 299.918 101.542 299.6C101.106 299.297 100.82 299.021 100.652 298.778L100.642 298.764L100.632 298.751C100.556 298.655 100.531 298.583 100.524 298.531C100.517 298.481 100.522 298.415 100.564 298.325C100.662 298.116 100.829 297.981 101.187 297.953L101.187 297.953L101.196 297.952C101.539 297.919 102.145 298.059 103.074 298.492C103.88 298.867 104.653 299.367 105.392 299.994C106.11 300.634 106.68 301.282 107.107 301.936L107.416 302.409L107.848 302.045L110.562 299.759L110.888 299.484L110.668 299.119C110.19 298.322 109.447 297.511 108.466 296.686Z" stroke="#006AA7"/>
<path d="M91.1653 288.974L91.1654 288.974L91.1639 288.969C90.7414 287.499 89.6762 286.271 88.0592 285.268C87.4413 284.885 86.8032 284.584 86.1452 284.368L86.1452 284.368L86.1352 284.365C85.4445 284.154 84.7807 284.062 84.1482 284.101L83.7611 284.125L83.6878 284.505L83.0474 287.828L82.9203 288.488L83.5885 288.42C84.0903 288.37 84.5951 288.49 85.1165 288.814C85.5318 289.071 85.7398 289.362 85.8158 289.678C85.8819 290.008 85.8109 290.399 85.5161 290.874L82.4623 295.798L79.6144 294.032L79.1895 293.768L78.9259 294.193L77.1083 297.124L76.8447 297.549L77.2697 297.813L80.1176 299.579L78.3968 302.354L78.1333 302.778L78.5582 303.042L82.3684 305.405L82.7933 305.669L83.0569 305.244L84.7777 302.469L86.38 303.463L86.8049 303.726L87.0684 303.301L88.8861 300.37L89.1496 299.945L88.7247 299.682L87.1224 298.688L90.2064 293.715C91.2239 292.075 91.5818 290.482 91.1653 288.974Z" stroke="#006AA7"/>
<path d="M77.9683 279.256L77.9668 279.252C77.4646 278.143 76.685 277.161 75.6435 276.302C74.6664 275.497 73.5779 274.971 72.3826 274.734L72.3826 274.734L72.3793 274.734C72.0679 274.674 71.7582 274.639 71.4505 274.629L71.8616 274.13L72.1797 273.745L71.7939 273.427L68.5118 270.721L68.126 270.403L67.8079 270.789L57.9725 282.72L57.6545 283.105L58.0403 283.423L61.4997 286.275L61.8856 286.593L62.2036 286.208L67.0665 280.309C67.6301 279.625 68.1901 279.173 68.7402 278.92C69.2833 278.68 69.7982 278.612 70.2964 278.696C70.7998 278.798 71.2882 279.036 71.7633 279.428C72.4481 279.992 72.7687 280.593 72.8113 281.233C72.8272 281.872 72.5145 282.655 71.7361 283.6L66.599 289.831L66.281 290.217L66.6668 290.535L70.1263 293.387L70.5121 293.705L70.8301 293.319L76.3877 286.577C77.434 285.308 78.1035 284.045 78.3537 282.789L78.3537 282.789L78.3545 282.785C78.59 281.552 78.4632 280.371 77.9683 279.256Z" stroke="#006AA7"/>
<path d="M44.078 267.968L44.638 267.478C44.6519 267.849 44.7032 268.217 44.7925 268.583C45.0664 269.777 45.6652 270.89 46.5685 271.923C47.5633 273.059 48.7176 273.888 50.0307 274.395L50.0307 274.395L50.0339 274.397C51.336 274.89 52.6925 275.023 54.094 274.798L54.094 274.798L54.0963 274.798C55.4925 274.568 56.7907 273.915 57.9886 272.866C59.1733 271.83 59.9907 270.63 60.4181 269.268L60.4181 269.268L60.4209 269.259C60.8137 267.913 60.8609 266.555 60.5616 265.191L60.5617 265.191L60.5593 265.181C60.2305 263.813 59.5623 262.559 58.5675 261.422C57.6632 260.389 56.6379 259.647 55.4895 259.217C55.2341 259.122 54.9755 259.045 54.7139 258.987C55.5636 258.34 56.3491 258.087 57.0804 258.146L57.0804 258.146L57.087 258.146C57.8954 258.2 58.806 258.718 59.8155 259.871C60.4219 260.564 60.9287 261.376 61.3336 262.312L61.3336 262.312L61.336 262.317C61.7409 263.223 61.9459 264.056 61.9688 264.821L61.9868 265.422L62.5744 265.295L66.1702 264.516L66.5858 264.426L66.5637 264.001C66.4999 262.775 66.1348 261.518 65.4869 260.232C64.8452 258.929 64.0305 257.714 63.0443 256.587C61.1518 254.425 59.1217 253.167 56.9494 252.919C54.7509 252.669 52.5304 253.59 50.3075 255.536L40.6183 264.015L40.242 264.344L40.5713 264.72L43.3725 267.921L43.7018 268.298L44.078 267.968ZM48.6368 264.801L48.6369 264.801L48.6391 264.794C48.7985 264.272 49.1229 263.783 49.6418 263.329C50.1439 262.889 50.6737 262.629 51.2343 262.528C51.7993 262.426 52.3596 262.479 52.9248 262.693C53.4754 262.919 53.9877 263.293 54.4598 263.833C54.9319 264.372 55.235 264.93 55.3864 265.505C55.5236 266.094 55.5082 266.666 55.3427 267.23C55.1677 267.77 54.84 268.259 54.3396 268.697C53.8215 269.15 53.2945 269.407 52.7568 269.496C52.1759 269.586 51.6152 269.519 51.065 269.294L51.0651 269.294L51.0535 269.29C50.4906 269.076 49.9733 268.709 49.5026 268.171C49.032 267.633 48.7368 267.072 48.5991 266.485L48.5993 266.485L48.5962 266.473C48.4465 265.9 48.4612 265.346 48.6368 264.801Z" stroke="#006AA7"/>
<path d="M43.4363 240.687L43.8592 240.42L43.5923 239.997L41.353 236.448L41.0862 236.026L40.6633 236.292L33.2016 241.001C31.1336 242.306 29.8897 243.893 29.6173 245.782C29.3504 247.632 29.9118 249.596 31.2091 251.652C31.8875 252.727 32.6982 253.695 33.6405 254.556L33.6405 254.556C34.5845 255.418 35.5633 256.066 36.5782 256.488L36.9797 256.655L37.2007 256.281L38.9911 253.248L39.3007 252.724L38.726 252.522C38.1226 252.31 37.5252 251.961 36.9343 251.462L36.9343 251.462L36.9287 251.458C36.3127 250.953 35.8009 250.376 35.3908 249.727C34.7791 248.757 34.5999 247.993 34.7132 247.397L34.7133 247.397L34.7147 247.389C34.8 246.897 35.0494 246.458 35.5042 246.072L37.1214 248.634C37.9783 249.992 38.8686 251.02 39.8017 251.683C40.7067 252.348 41.6394 252.718 42.5935 252.742L42.5935 252.742L42.6032 252.742C43.5286 252.747 44.4191 252.471 45.2673 251.936C46.0906 251.416 46.7073 250.725 47.1037 249.866C47.5007 249.006 47.6346 248.052 47.5225 247.02L47.5225 247.02L47.5214 247.011C47.3902 245.978 46.9752 244.927 46.3022 243.86C45.5443 242.659 44.6714 241.782 43.6692 241.276C43.4366 241.158 43.2002 241.062 42.9603 240.987L43.4363 240.687ZM38.5439 244.114L39.3756 243.589C39.9643 243.491 40.4974 243.568 40.9916 243.81C41.513 244.084 41.9515 244.494 42.3062 245.057C42.6878 245.661 42.8336 246.168 42.8142 246.592C42.7713 246.985 42.5887 247.278 42.2321 247.503C41.9159 247.702 41.5972 247.749 41.2404 247.65C40.9174 247.548 40.4674 247.162 39.9182 246.292L38.5439 244.114Z" stroke="#006AA7"/>
<path d="M22.0797 231.951L21.4354 232.23L20.9767 232.429L21.1756 232.888L22.8792 236.816L23.0781 237.275L23.5368 237.076L37.7228 230.925L38.1816 230.726L37.9827 230.268L36.1991 226.154L36.0002 225.695L35.5414 225.894L28.5275 228.936C27.6961 229.296 26.9959 229.441 26.4147 229.411C25.8151 229.362 25.3282 229.17 24.9322 228.847L24.9322 228.847L24.9273 228.843C24.4871 228.493 24.1392 228.034 23.8869 227.452C23.532 226.633 23.5269 225.963 23.786 225.394L23.7861 225.394L23.7896 225.386C24.0419 224.805 24.6434 224.254 25.7296 223.783L33.2181 220.536L33.6769 220.337L33.478 219.879L31.6944 215.765L31.4955 215.306L31.0367 215.505L22.9154 219.027C21.4246 219.673 20.2774 220.483 19.5166 221.477C18.7489 222.464 18.3282 223.56 18.2713 224.754C18.1902 225.92 18.415 227.099 18.9296 228.286C19.4841 229.565 20.2553 230.605 21.2492 231.391C21.5161 231.602 21.793 231.788 22.0797 231.951Z" stroke="#006AA7"/>
<path d="M25.3356 194.287L25.8281 194.201L25.742 193.708L24.9405 189.122L24.8544 188.63L24.3619 188.716L8.77375 191.44L7.75154 185.591L7.66547 185.098L7.17293 185.184L3.43587 185.837L2.94334 185.923L3.02942 186.416L6.0475 203.686L6.13358 204.178L6.62612 204.092L10.3632 203.439L10.8557 203.353L10.7696 202.86L9.74743 197.011L25.3356 194.287Z" stroke="#006AA7"/>
<path d="M22.7693 174.809L22.7709 174.805C23.2859 173.702 23.5246 172.471 23.4987 171.121C23.4743 169.855 23.165 168.687 22.5668 167.625L22.5668 167.625L22.5652 167.622C22.4077 167.347 22.2325 167.089 22.04 166.849L22.6863 166.837L23.1862 166.827L23.1766 166.327L23.0949 162.074L23.0853 161.574L22.5853 161.584L7.126 161.881L6.6261 161.891L6.6357 162.391L6.72184 166.873L6.73144 167.373L7.23135 167.364L14.8748 167.217C15.7607 167.2 16.4681 167.331 17.0181 167.584C17.5542 167.84 17.9408 168.187 18.2011 168.62C18.4512 169.068 18.5885 169.594 18.6003 170.209C18.6174 171.097 18.3701 171.731 17.9116 172.18C17.437 172.608 16.6387 172.88 15.4153 172.904L7.34078 173.059L6.84088 173.069L6.85048 173.568L6.93662 178.051L6.94622 178.551L7.44613 178.541L16.1815 178.374C17.8261 178.342 19.2209 178.028 20.3376 177.401L20.3376 177.401L20.341 177.399C21.4303 176.775 22.2448 175.91 22.7693 174.809Z" stroke="#006AA7"/>
<path d="M23.1632 155.416L23.6606 155.467L23.7115 154.97L24.1685 150.509L24.2194 150.012L23.722 149.961L2.50791 147.788L2.01051 147.737L1.95955 148.234L1.5026 152.694L1.45164 153.192L1.94904 153.243L23.1632 155.416Z" stroke="#006AA7"/>
<path d="M24.5975 143.887L25.089 143.978L25.1807 143.487L26.0028 139.079L26.0945 138.588L25.603 138.496L4.6394 134.586L4.14788 134.494L4.05619 134.986L3.23406 139.393L3.14238 139.885L3.6339 139.976L24.5975 143.887Z" stroke="#006AA7"/>
<path d="M27.393 129.308L27.3951 129.306C28.5163 128.164 29.343 126.711 29.8859 124.965C30.3158 123.582 30.4933 122.276 30.4039 121.052L30.404 121.052L30.4033 121.044C30.2947 119.819 29.9429 118.708 29.3417 117.721L29.1072 117.337L28.7002 117.53L25.522 119.04L25.0606 119.259L25.2897 119.716C25.5842 120.303 25.7514 120.899 25.7964 121.508L25.7964 121.508L25.7969 121.513C25.8461 122.095 25.7645 122.752 25.5345 123.492C25.2801 124.31 24.9201 124.96 24.4661 125.456C24.0046 125.924 23.4676 126.232 22.8479 126.388C22.7047 126.417 22.5593 126.439 22.4115 126.451L25.6839 115.924L25.8182 115.492L25.4016 115.315C25.2228 115.239 25.035 115.161 24.8382 115.079L24.8347 115.078C24.612 114.988 24.4092 114.914 24.2278 114.857C22.5682 114.341 21.0073 114.244 19.5588 114.593C18.1074 114.932 16.8591 115.628 15.825 116.678C14.7811 117.7 14.0268 118.976 13.556 120.491C13.0675 122.062 12.97 123.595 13.2772 125.079C13.5652 126.554 14.2089 127.856 15.2045 128.976L15.2045 128.976L15.2061 128.977C16.1974 130.082 17.4813 130.872 19.0387 131.356C20.5815 131.836 22.0906 131.902 23.5554 131.541L23.5554 131.541L23.5589 131.541C25.0034 131.174 26.2827 130.425 27.393 129.308ZM20.8181 119.397L18.9301 125.471C18.7598 125.351 18.6076 125.221 18.4723 125.081L18.4723 125.081L18.4676 125.076C18.0422 124.647 17.7765 124.162 17.6573 123.614L17.6574 123.614L17.6562 123.609C17.525 123.035 17.5535 122.424 17.7579 121.767C17.9625 121.109 18.2816 120.602 18.7047 120.224L18.7048 120.224L18.7139 120.215C19.1261 119.828 19.6141 119.577 20.1894 119.46C20.3909 119.419 20.6003 119.398 20.8181 119.397Z" stroke="#006AA7"/>
<path d="M22.5926 100.969L21.9626 100.659L21.514 100.438L21.2932 100.887L19.4022 104.729L19.1814 105.177L19.63 105.398L33.5031 112.226L33.9517 112.447L34.1725 111.998L36.1523 107.976L36.373 107.527L35.9244 107.306L29.0653 103.93C28.2522 103.53 27.688 103.091 27.3349 102.628C26.9837 102.14 26.815 101.644 26.8048 101.133L26.8048 101.133L26.8046 101.127C26.7863 100.565 26.9112 100.002 27.1912 99.4331C27.5852 98.6327 28.0925 98.195 28.6941 98.0238L28.6941 98.0238L28.7025 98.0213C29.3087 97.8373 30.1177 97.9392 31.18 98.462L38.5033 102.066L38.9519 102.287L39.1727 101.838L41.1525 97.8158L41.3733 97.3672L40.9247 97.1464L32.9825 93.2375C31.5247 92.52 30.1647 92.1701 28.9147 92.2339C27.6649 92.2884 26.5575 92.6773 25.6108 93.407C24.67 94.0999 23.917 95.0348 23.3459 96.1952C22.7303 97.446 22.4367 98.7074 22.4816 99.9735C22.4937 100.313 22.5307 100.645 22.5926 100.969Z" stroke="#006AA7"/>
<path d="M48.1579 78.628L48.1676 78.6244L48.1772 78.6203C48.8418 78.34 49.4034 77.9079 49.8575 77.3317C50.3116 76.7556 50.5963 76.1139 50.7012 75.412L50.7012 75.412L50.7019 75.4065C50.8011 74.6886 50.7272 73.9919 50.4776 73.3242L50.4777 73.3242L50.4749 73.317C50.2045 72.6263 49.7508 72.0368 49.1315 71.5487C48.5123 71.0607 47.8382 70.7612 47.1131 70.6724C46.4058 70.5858 45.7173 70.6824 45.056 70.9595C44.3833 71.2129 43.8168 71.6339 43.3614 72.2118C42.9043 72.7916 42.6229 73.4485 42.5221 74.1746C42.4186 74.87 42.4927 75.5542 42.7412 76.2193C42.997 76.9036 43.4457 77.4891 44.0648 77.9771C44.6842 78.4652 45.3634 78.7686 46.0981 78.8701L46.0981 78.8702L46.1058 78.8711C46.8085 78.9571 47.4948 78.8758 48.1579 78.628Z" stroke="#006AA7"/>
<path d="M69.0042 62.445L69.3344 62.8204L69.7099 62.4902L73.206 59.4155L73.5815 59.0853L73.2513 58.7098L59.9653 43.6029L59.6351 43.2274L59.2596 43.5576L52.7421 49.2896L52.3666 49.6198L52.6968 49.9952L55.1642 52.8008L55.4944 53.1763L55.8699 52.8461L58.5158 50.5191L69.0042 62.445Z" stroke="#006AA7"/>
<path d="M81.2061 52.5458L81.2061 52.5458L81.2125 52.5445C82.6141 52.2367 84.0352 51.5908 85.4749 50.624C86.9299 49.6469 88.0738 48.5705 88.8893 47.3891L88.8893 47.3891L88.8915 47.3858C89.7091 46.1812 90.1737 44.9451 90.2564 43.6819L90.2564 43.6819L90.2567 43.6769C90.3282 42.3871 89.9799 41.1762 89.2287 40.0577C88.479 38.9412 87.5082 38.1859 86.3177 37.8275C85.6992 37.6265 85.0489 37.5344 84.3695 37.5464C84.485 37.1623 84.5583 36.774 84.5877 36.3817C84.6786 35.2135 84.3691 34.11 83.6812 33.0857C82.964 32.0178 82.0328 31.286 80.8899 30.9215C79.7711 30.5367 78.5555 30.498 77.2578 30.7827C75.9595 31.0421 74.6454 31.6276 73.3169 32.5197C72.018 33.392 70.9883 34.3815 70.2426 35.4932C69.4868 36.588 69.0623 37.7295 68.9958 38.9124C68.9175 40.0976 69.2511 41.2295 69.967 42.2955C70.6528 43.3168 71.5463 44.0258 72.6442 44.3955L72.6441 44.3957L72.6565 44.3995C73.0346 44.516 73.4237 44.5922 73.8234 44.6293C73.5556 45.2537 73.3912 45.8926 73.3349 46.5456L73.3348 46.5469C73.2322 47.7748 73.5725 48.9532 74.3216 50.0686C75.0727 51.1872 76.0618 51.9677 77.2828 52.3896L77.2828 52.3896L77.2875 52.3912C78.486 52.792 79.7969 52.836 81.2061 52.5458ZM84.6753 45.0224L84.6753 45.0224L84.6731 45.0289C84.451 45.694 83.9236 46.3415 83.0107 46.9546C82.1156 47.5557 81.3244 47.7948 80.6231 47.7487C79.9436 47.704 79.4065 47.3924 78.9846 46.7641C78.5627 46.1359 78.4846 45.5326 78.7062 44.9073L78.7063 44.9073L78.7091 44.8987C78.9318 44.2321 79.4526 43.5901 80.3476 42.989C81.2605 42.376 82.0595 42.1328 82.7592 42.1789L82.7671 42.1794L82.7749 42.1797C83.4541 42.2028 83.9868 42.5002 84.4055 43.1236C84.8244 43.7473 84.905 44.3646 84.6753 45.0224ZM79.3568 37.9352L79.3567 37.9351L79.3542 37.943C79.1839 38.4769 78.7641 39.0051 78.0116 39.5105C77.2772 40.0036 76.6372 40.1886 76.0765 40.1442C75.5352 40.1012 75.1008 39.8467 74.7507 39.3254C74.3777 38.77 74.3079 38.2535 74.4837 37.7324C74.6715 37.1756 75.084 36.6573 75.7811 36.1891C76.4964 35.7088 77.1401 35.5193 77.7245 35.556L77.7245 35.5561L77.7323 35.5565C78.2975 35.583 78.7524 35.8398 79.1218 36.3899C79.4683 36.9058 79.5353 37.4059 79.3568 37.9352Z" stroke="#006AA7"/>
<path d="M101.794 32.0183C102.228 31.6004 102.598 31.1485 102.902 30.6627C103.231 31.8323 103.22 32.8485 102.91 33.7283L102.91 33.7283L102.909 33.7327C102.487 34.9661 101.58 35.9305 100.117 36.6148C99.5243 36.8922 98.9324 37.0991 98.3414 37.2371C97.7681 37.3523 97.1805 37.3604 96.5753 37.2588L96.0097 37.164L95.9928 37.7372L95.8801 41.5658L95.8669 42.0141L96.3112 42.0758C97.2147 42.2011 98.1832 42.1508 99.2117 41.9353C100.234 41.7212 101.239 41.3824 102.227 40.9203C104.13 40.0298 105.636 38.843 106.725 37.3515C107.815 35.8574 108.411 34.1461 108.515 32.2318C108.638 30.2982 108.178 28.2492 107.17 26.0937C106.222 24.0683 105.079 22.5031 103.725 21.4309C102.368 20.3457 100.863 19.7278 99.2182 19.5934L99.1774 20.0917L99.2182 19.5934C97.5758 19.4591 95.8772 19.8144 94.131 20.6313C92.8029 21.2526 91.6971 22.0919 90.8231 23.1516C89.9557 24.189 89.408 25.3535 89.19 26.6392L89.1899 26.6392L89.1889 26.6457C88.9861 27.9446 89.2088 29.2631 89.829 30.5889C90.4006 31.8107 91.2062 32.758 92.2522 33.4061L92.2521 33.4061L92.2582 33.4098C93.3044 34.0376 94.4523 34.3674 95.6928 34.3998L95.6965 34.3999C96.9535 34.4235 98.1971 34.1432 99.4225 33.5699C100.346 33.1381 101.136 32.6249 101.786 32.0259L101.786 32.026L101.794 32.0183ZM95.0293 25.5161L95.0344 25.5101L95.0392 25.504C95.3278 25.1393 95.7374 24.8231 96.2887 24.5652C96.9129 24.2732 97.4622 24.1529 97.9451 24.1726L97.9525 24.1729L97.9599 24.173C98.4425 24.1783 98.8496 24.3065 99.1989 24.5481L99.2092 24.5552L99.2198 24.5617C99.5768 24.7833 99.86 25.1045 100.066 25.5458C100.273 25.9869 100.344 26.4224 100.29 26.862L100.786 26.9223L100.29 26.862C100.237 27.2984 100.06 27.7168 99.7402 28.122C99.4322 28.4984 99.0117 28.8188 98.4623 29.0758C97.6085 29.4753 96.8653 29.556 96.2077 29.3791C95.5715 29.1809 95.0864 28.7508 94.7505 28.0327C94.5248 27.5504 94.4555 27.1099 94.5134 26.7001L94.5134 26.7001L94.5146 26.6905C94.5682 26.25 94.7375 25.862 95.0293 25.5161Z" stroke="#006AA7"/>
<path d="M115.558 34.1006L115.701 34.5796L116.18 34.4365L130.747 30.0851L131.227 29.942L131.083 29.4629L129.998 25.8279L129.855 25.3488L129.375 25.4919L122.284 27.6103L124.845 23.1882C124.845 23.1881 124.845 23.1881 124.845 23.188C125.502 22.0591 125.972 21.0603 126.244 20.1966C126.53 19.3376 126.665 18.5409 126.628 17.8143C126.605 17.1009 126.495 16.4109 126.296 15.7455C125.92 14.4852 125.262 13.4731 124.312 12.7376C123.39 12.004 122.27 11.5726 120.974 11.4279C119.684 11.2586 118.294 11.405 116.811 11.8479C115.026 12.3813 113.527 13.1912 112.333 14.288C111.145 15.3787 110.324 16.632 109.89 18.047L109.741 18.5326L110.229 18.6739L114.104 19.7962L114.559 19.928L114.715 19.4804C114.969 18.7516 115.355 18.1682 115.87 17.7154C116.418 17.2443 117.06 16.8967 117.803 16.6746C118.757 16.3897 119.451 16.4013 119.941 16.6072L119.95 16.6109L119.959 16.6143C120.442 16.7953 120.787 17.1657 120.981 17.8131C121.051 18.0476 121.088 18.3328 121.083 18.6754L121.082 18.6875L121.083 18.6997C121.093 19.0058 121.037 19.3905 120.898 19.8624C120.766 20.3094 120.5 20.8744 120.083 21.564L120.083 21.5639L120.078 21.5728L114.74 30.8159L114.632 31.0026L114.694 31.2091L115.558 34.1006Z" stroke="#006AA7"/>
<path d="M148.775 22.1573L148.784 22.1618L148.793 22.166C149.454 22.4571 150.153 22.5691 150.884 22.504C151.615 22.4389 152.277 22.2057 152.859 21.8003L152.859 21.8003L152.864 21.7971C153.454 21.3766 153.91 20.8446 154.224 20.205L154.224 20.205L154.228 20.198C154.545 19.5274 154.662 18.7929 154.592 18.0074C154.522 17.2222 154.277 16.5263 153.844 15.9379C153.422 15.3641 152.879 14.9296 152.224 14.6387C151.578 14.3233 150.883 14.2001 150.15 14.2654C149.415 14.3308 148.744 14.5769 148.147 15.0018C147.57 15.4038 147.123 15.9271 146.81 16.5644L147.254 16.7826L146.81 16.5644C146.487 17.22 146.369 17.9482 146.439 18.7334C146.509 19.5189 146.755 20.2211 147.185 20.8252L147.185 20.8252L147.19 20.8314C147.609 21.4016 148.139 21.845 148.775 22.1573Z" stroke="#006AA7"/>
<path d="M178.538 26.5355L178.54 26.5367C179.875 27.2659 181.361 27.7403 182.991 27.9641C184.602 28.1854 186.133 28.1253 187.58 27.7768C189.037 27.4329 190.343 26.8535 191.492 26.0354L191.493 26.0352C192.663 25.2014 193.627 24.1658 194.385 22.9319L194.386 22.9296C195.149 21.671 195.634 20.2668 195.846 18.7232C196.061 17.1623 195.971 15.6868 195.569 14.3033C195.172 12.9123 194.523 11.6561 193.623 10.5386C192.739 9.42151 191.638 8.50109 190.327 7.77649C189.027 7.05059 187.559 6.57888 185.929 6.35511C184.318 6.13377 182.778 6.19283 181.313 6.53826C179.854 6.88242 178.537 7.47061 177.367 8.30465C176.197 9.13851 175.232 10.1741 174.475 11.4079L174.475 11.4079L174.472 11.4134C173.731 12.6558 173.257 14.0509 173.046 15.5921C172.834 17.1332 172.914 18.6045 173.292 20.0005L173.292 20.0005L173.294 20.0067C173.69 21.3968 174.329 22.6515 175.211 23.7669L175.214 23.7707C176.116 24.8893 177.226 25.8108 178.538 26.5355ZM185.961 22.9311L185.961 22.9311L185.956 22.9322C185.244 23.1162 184.473 23.1549 183.638 23.0402C182.803 22.9256 182.06 22.679 181.403 22.3052C180.744 21.9309 180.192 21.4489 179.743 20.8576C179.313 20.269 178.996 19.5965 178.796 18.8351C178.618 18.0626 178.586 17.242 178.706 16.3694C178.829 15.4756 179.081 14.6952 179.456 14.0209C179.854 13.3429 180.348 12.7822 180.94 12.3334C181.534 11.8824 182.188 11.5652 182.905 11.3798C183.638 11.1975 184.42 11.1605 185.254 11.2751C186.089 11.3897 186.832 11.6363 187.489 12.0101C188.148 12.3844 188.689 12.8641 189.118 13.4504L189.118 13.4504L189.123 13.4572C189.571 14.0477 189.886 14.7179 190.067 15.4732L190.067 15.4732L190.07 15.4833C190.267 16.2348 190.309 17.0537 190.186 17.9459C190.064 18.8381 189.803 19.6155 189.41 20.286L189.41 20.2859L189.405 20.2951C189.027 20.9735 188.543 21.534 187.952 21.9819C187.359 22.4316 186.697 22.7478 185.961 22.9311ZM181.441 4.60769L181.441 4.60778L181.449 4.61709C181.88 5.12989 182.443 5.43524 183.113 5.52725C183.783 5.6193 184.404 5.47595 184.942 5.08849C185.497 4.68968 185.814 4.11081 185.911 3.40509C186.008 2.69936 185.859 2.05652 185.432 1.52294C185.018 1.00453 184.459 0.699333 183.789 0.607287C183.119 0.515273 182.494 0.657519 181.941 1.03516L181.941 1.03504L181.931 1.04214C181.376 1.44094 181.059 2.01982 180.963 2.72554C180.866 3.43126 181.015 4.0741 181.441 4.60769ZM187.221 5.40143C187.636 5.91985 188.194 6.22504 188.865 6.31708C189.533 6.40885 190.151 6.26666 190.689 5.88185C191.263 5.48829 191.593 4.91035 191.691 4.19883C191.789 3.48732 191.626 2.84165 191.18 2.30805C190.766 1.7925 190.209 1.48889 189.54 1.39712C188.87 1.30507 188.25 1.44842 187.711 1.83588C187.156 2.23469 186.839 2.81356 186.743 3.51928C186.646 4.22501 186.795 4.86785 187.221 5.40143Z" stroke="#006AA7"/>
<path d="M199.281 30.2862L199.146 30.7677L199.627 30.9025L203.945 32.1111L204.426 32.2459L204.561 31.7644L210.31 11.2286L210.445 10.7471L209.963 10.6124L205.646 9.40376L205.164 9.26898L205.029 9.75047L199.281 30.2862Z" stroke="#006AA7"/>
<path d="M211.914 34.4171L211.914 34.4172L211.921 34.4226C212.982 35.1862 214.145 35.8195 215.409 36.3231C216.89 36.9129 218.25 37.2223 219.482 37.2284C220.719 37.2415 221.799 37.0033 222.697 36.4848L222.697 36.4848L222.703 36.4816C223.61 35.9429 224.265 35.1702 224.659 34.1796C225.007 33.3061 225.137 32.4844 224.993 31.7358C224.864 31.0154 224.572 30.3726 224.118 29.8167C223.709 29.2759 223.206 28.7901 222.614 28.3579C222.039 27.938 221.445 27.5631 220.832 27.2335C220.273 26.9089 219.761 26.594 219.299 26.2889C218.854 25.9953 218.537 25.7201 218.33 25.4681C218.212 25.3138 218.192 25.1748 218.269 24.9825C218.341 24.8009 218.498 24.6466 218.902 24.586C219.294 24.5272 219.917 24.6305 220.821 24.9906C221.442 25.2378 222.053 25.5688 222.655 25.9857L222.661 25.9899L222.667 25.9939C223.27 26.3862 223.823 26.9023 224.324 27.5487L224.66 27.9834L225.061 27.6072L227.63 25.1966L227.958 24.889L227.687 24.5305C227.131 23.7952 226.363 23.1105 225.4 22.4707L225.124 22.8865L225.4 22.4707C224.444 21.8349 223.459 21.3145 222.446 20.911C221.015 20.341 219.677 20.0518 218.437 20.0644C217.215 20.0591 216.141 20.3119 215.238 20.8485L215.238 20.8484L215.231 20.8527C214.342 21.4005 213.697 22.1855 213.298 23.1878C212.95 24.06 212.81 24.8802 212.924 25.6314L212.924 25.6315L212.926 25.6439C213.055 26.3664 213.343 27.018 213.789 27.5914C214.216 28.1389 214.727 28.6292 215.321 29.0629L215.321 29.0631L215.332 29.0707C215.909 29.4684 216.488 29.8358 217.069 30.1727L217.071 30.1738C217.655 30.509 218.185 30.8224 218.661 31.1141C219.113 31.3912 219.415 31.6506 219.596 31.8841L219.607 31.8976L219.618 31.9103C219.699 32.0012 219.729 32.0722 219.739 32.1237C219.748 32.1733 219.747 32.2386 219.709 32.3316C219.624 32.5456 219.464 32.6894 219.11 32.7377L219.11 32.7376L219.1 32.7391C218.759 32.7922 218.146 32.6865 217.195 32.3074C216.369 31.9784 215.569 31.5234 214.795 30.9391C214.041 30.341 213.436 29.7265 212.972 29.0978L212.637 28.6433L212.226 29.0312L209.647 31.4684L209.337 31.761L209.577 32.1132C210.1 32.882 210.887 33.6486 211.914 34.4171Z" stroke="#006AA7"/>
<path d="M229.622 41.1226L229.622 41.1226L229.623 41.1275C230.129 42.5718 231.262 43.7367 232.934 44.646C233.572 44.9934 234.226 45.2573 234.896 45.4356L234.896 45.4357L234.906 45.4382C235.607 45.6095 236.275 45.6638 236.905 45.5892L237.29 45.5435L237.341 45.1592L237.792 41.8053L237.881 41.1396L237.218 41.2449C236.72 41.324 236.209 41.2323 235.67 40.9392C235.241 40.7056 235.016 40.4271 234.923 40.1158C234.838 39.7897 234.886 39.396 235.154 38.9047L237.923 33.815L240.866 35.4164L241.306 35.6553L241.545 35.2161L243.193 32.1866L243.432 31.7474L242.992 31.5084L240.049 29.907L241.609 27.039L241.848 26.5998L241.409 26.3608L237.47 24.2183L237.031 23.9794L236.792 24.4186L235.232 27.2866L233.576 26.3856L233.136 26.1467L232.897 26.5859L231.249 29.6154L231.01 30.0546L231.45 30.2936L233.106 31.1946L230.309 36.3348C229.387 38.0307 229.12 39.641 229.622 41.1226Z" stroke="#006AA7"/>
<path d="M243.346 50.0753L243.348 50.0787C243.912 51.157 244.746 52.0937 245.835 52.8917C246.856 53.6404 247.973 54.1032 249.18 54.2715L249.18 54.2715L249.183 54.272C249.497 54.3137 249.808 54.3308 250.116 54.3235L249.734 54.8449L249.439 55.2481L249.842 55.5437L253.272 58.0584L253.676 58.354L253.971 57.9507L263.112 45.48L263.408 45.0767L263.005 44.7811L259.389 42.1305L258.985 41.8349L258.69 42.2382L254.17 48.404C253.646 49.1186 253.113 49.6014 252.578 49.8852C252.05 50.1562 251.539 50.2533 251.037 50.1975C250.529 50.1243 250.028 49.9146 249.531 49.5505C248.815 49.0258 248.461 48.4445 248.382 47.8077C248.33 47.1707 248.598 46.3709 249.321 45.384L254.095 38.8705L254.391 38.4672L253.988 38.1716L250.372 35.5211L249.969 35.2255L249.673 35.6287L244.508 42.6754C243.535 44.002 242.939 45.3012 242.76 46.5697L242.76 46.5697L242.76 46.5736C242.595 47.8179 242.788 48.9902 243.346 50.0753Z" stroke="#006AA7"/>
<path d="M277.831 59.4218L277.3 59.9429C277.265 59.5741 277.193 59.2091 277.082 58.8486C276.741 57.6723 276.08 56.5948 275.12 55.6156C274.062 54.5373 272.862 53.7756 271.522 53.3436L271.522 53.3436L271.519 53.3426C270.191 52.9244 268.829 52.8687 267.443 53.1725L267.443 53.1725L267.44 53.173C266.06 53.4822 264.801 54.2079 263.664 55.3227C262.54 56.4251 261.792 57.669 261.443 59.0532L261.443 59.0531L261.441 59.0629C261.125 60.4284 261.155 61.7873 261.532 63.1319L261.532 63.1319L261.535 63.1413C261.941 64.4892 262.679 65.7032 263.737 66.7815C264.698 67.7616 265.764 68.4438 266.935 68.8073C267.196 68.8882 267.458 68.9503 267.723 68.9937C266.911 69.688 266.141 69.9848 265.408 69.968L265.408 69.968L265.401 69.9679C264.591 69.9601 263.653 69.4946 262.579 68.4004C261.934 67.7431 261.382 66.9612 260.925 66.0503L260.925 66.0503L260.922 66.045C260.466 65.1638 260.214 64.3437 260.148 63.5813L260.096 62.9824L259.516 63.1428L255.971 64.1249L255.561 64.2385L255.607 64.6611C255.74 65.8817 256.176 67.1163 256.896 68.3624C257.611 69.6269 258.494 70.7937 259.542 71.8627C261.555 73.9142 263.653 75.0549 265.836 75.1785C268.045 75.3036 270.21 74.2572 272.318 72.1886L281.51 63.1721L281.867 62.822L281.517 62.465L278.538 59.4286L278.188 59.0716L277.831 59.4218ZM273.459 62.8435L273.459 62.8435L273.458 62.8508C273.328 63.381 273.032 63.8877 272.54 64.3705C272.063 64.8378 271.549 65.1278 270.995 65.2606C270.437 65.3945 269.875 65.3736 269.298 65.1921C268.736 64.9974 268.203 64.6528 267.701 64.1411C267.199 63.6294 266.865 63.09 266.681 62.5238C266.51 61.9435 266.493 61.3715 266.626 60.7993C266.77 60.2503 267.07 59.7438 267.544 59.2781C268.036 58.796 268.547 58.5098 269.079 58.3902C269.654 58.2674 270.218 58.3018 270.78 58.4951L270.78 58.4953L270.791 58.499C271.366 58.6808 271.903 59.0179 272.403 59.5281C272.904 60.0382 273.231 60.582 273.401 61.1595L273.401 61.1596L273.405 61.1713C273.587 61.7354 273.604 62.289 273.459 62.8435Z" stroke="#006AA7"/>
<path d="M280.02 86.6203L279.613 86.9107L279.904 87.3177L282.341 90.7332L282.632 91.1402L283.039 90.8497L290.221 85.7244C292.211 84.3039 293.363 82.649 293.527 80.748C293.689 78.8855 293.016 76.9566 291.604 74.9779C290.866 73.9432 290.001 73.0226 289.012 72.2168C288.02 71.4094 287.006 70.8179 285.969 70.4543L285.559 70.3104L285.359 70.6968L283.744 73.8266L283.465 74.3678L284.05 74.5364C284.665 74.7134 285.281 75.0282 285.899 75.4923L285.899 75.4924L285.905 75.4967C286.549 75.9652 287.092 76.5121 287.539 77.1377C288.205 78.0706 288.427 78.8237 288.348 79.4249L288.348 79.4249L288.347 79.433C288.29 79.9289 288.066 80.3819 287.633 80.7931L285.873 78.3264C284.94 77.0195 283.993 76.0439 283.024 75.4348C282.083 74.8226 281.13 74.5063 280.176 74.5367L280.176 74.5366L280.167 74.5371C279.242 74.5846 278.369 74.9112 277.553 75.4938C276.76 76.0593 276.184 76.7846 275.837 77.6645C275.49 78.5459 275.41 79.5055 275.581 80.5292L275.581 80.5293L275.582 80.5382C275.772 81.5621 276.246 82.5881 276.979 83.6146C277.804 84.7706 278.725 85.5975 279.754 86.0456C279.993 86.1496 280.235 86.2321 280.479 86.2933L280.02 86.6203ZM284.71 82.9204L283.909 83.4917C283.327 83.623 282.791 83.5764 282.284 83.3627C281.747 83.1189 281.286 82.7343 280.9 82.1932C280.485 81.6112 280.31 81.1132 280.306 80.6894C280.326 80.2946 280.492 79.9917 280.835 79.7468C281.139 79.5295 281.455 79.4645 281.817 79.5431C282.145 79.627 282.616 79.9865 283.214 80.8242L284.71 82.9204Z" stroke="#006AA7"/>
<path d="M301.839 94.1311L302.466 93.8156L302.913 93.5909L302.688 93.1442L300.764 89.3186L300.539 88.8719L300.092 89.0966L286.279 96.0443L285.832 96.269L286.057 96.7156L288.072 100.721L288.296 101.168L288.743 100.943L295.573 97.5079C296.382 97.1007 297.073 96.9157 297.655 96.9131C298.256 96.9276 298.753 97.0919 299.167 97.392L299.167 97.392L299.172 97.3956C299.632 97.7199 300.005 98.1588 300.29 98.7255C300.691 99.5225 300.734 100.191 300.508 100.774L300.508 100.774L300.505 100.782C300.286 101.377 299.717 101.961 298.659 102.493L291.367 106.16L290.92 106.385L291.145 106.832L293.16 110.837L293.384 111.284L293.831 111.059L301.739 107.082C303.191 106.352 304.29 105.478 304.993 104.442C305.703 103.413 306.061 102.295 306.05 101.099C306.065 99.9311 305.773 98.7666 305.192 97.6111C304.566 96.3657 303.737 95.3707 302.7 94.643C302.421 94.4476 302.134 94.2769 301.839 94.1311Z" stroke="#006AA7"/>
<path d="M300.721 131.913L300.235 132.027L300.348 132.514L301.409 137.048L301.523 137.535L302.01 137.421L317.418 133.814L318.771 139.596L318.885 140.083L319.372 139.969L323.066 139.104L323.553 138.99L323.439 138.504L319.444 121.433L319.33 120.947L318.843 121.061L315.149 121.925L314.662 122.039L314.776 122.526L316.129 128.307L300.721 131.913Z" stroke="#006AA7"/>
<path d="M304.398 151.221L304.397 151.224C303.945 152.354 303.777 153.597 303.88 154.943C303.976 156.206 304.351 157.355 305.009 158.381L305.009 158.381L305.011 158.384C305.184 158.649 305.373 158.897 305.579 159.126L304.934 159.175L304.436 159.213L304.474 159.711L304.797 163.953L304.835 164.451L305.334 164.413L320.751 163.238L321.25 163.2L321.212 162.701L320.871 158.231L320.833 157.732L320.334 157.77L312.712 158.351C311.828 158.419 311.114 158.328 310.551 158.106C310.001 157.882 309.595 157.557 309.311 157.14C309.036 156.706 308.869 156.189 308.822 155.575C308.755 154.69 308.965 154.043 309.398 153.569C309.847 153.114 310.629 152.797 311.849 152.704L319.901 152.09L320.4 152.052L320.362 151.554L320.021 147.083L319.983 146.585L319.484 146.623L310.773 147.287C309.133 147.412 307.758 147.804 306.679 148.495L306.679 148.495L306.675 148.497C305.623 149.181 304.859 150.091 304.398 151.221Z" stroke="#006AA7"/>
<path d="M305.102 170.595L304.603 170.573L304.58 171.072L304.377 175.551L304.355 176.051L304.854 176.073L326.158 177.037L326.657 177.06L326.68 176.56L326.882 172.081L326.905 171.582L326.405 171.559L305.102 170.595Z" stroke="#006AA7"/>
<path d="M304.331 182.196L303.836 182.133L303.772 182.629L303.202 187.076L303.138 187.572L303.634 187.635L324.786 190.347L325.282 190.411L325.346 189.915L325.916 185.468L325.979 184.972L325.484 184.908L304.331 182.196Z" stroke="#006AA7"/>
<path d="M302.366 196.905L302.364 196.907C301.309 198.11 300.567 199.608 300.124 201.382C299.773 202.788 299.67 204.102 299.829 205.318L299.829 205.318L299.83 205.326C300.008 206.543 300.423 207.632 301.079 208.583L301.335 208.954L301.73 208.738L304.818 207.05L305.266 206.804L305.011 206.362C304.684 205.792 304.483 205.207 304.403 204.601L304.403 204.601L304.403 204.596C304.32 204.018 304.364 203.357 304.552 202.606C304.76 201.774 305.082 201.105 305.507 200.584C305.941 200.09 306.46 199.752 307.07 199.562C307.211 199.524 307.355 199.495 307.502 199.474L304.833 210.17L304.724 210.609L305.15 210.762C305.332 210.827 305.524 210.895 305.726 210.965L305.729 210.966C305.957 211.044 306.163 211.106 306.348 211.152C308.034 211.573 309.598 211.582 311.024 211.151C312.454 210.729 313.661 209.963 314.633 208.857C315.617 207.776 316.298 206.46 316.682 204.921C317.08 203.324 317.09 201.789 316.699 200.324C316.328 198.868 315.611 197.605 314.554 196.543L314.554 196.543L314.552 196.542C313.499 195.495 312.173 194.779 310.59 194.385C309.023 193.994 307.512 194.013 306.07 194.457L306.07 194.457L306.067 194.458C304.646 194.906 303.411 195.726 302.366 196.905ZM309.494 206.425L311.033 200.254C311.21 200.364 311.369 200.485 311.512 200.617L311.512 200.618L311.517 200.622C311.966 201.026 312.259 201.496 312.41 202.036L312.409 202.036L312.411 202.041C312.575 202.606 312.581 203.218 312.414 203.886C312.247 204.554 311.958 205.079 311.557 205.48L311.556 205.48L311.548 205.489C311.158 205.899 310.685 206.177 310.118 206.327C309.919 206.379 309.711 206.412 309.494 206.425Z" stroke="#006AA7"/>
<path d="M308.773 224.928L309.42 225.201L309.88 225.396L310.075 224.936L311.745 220.992L311.94 220.532L311.479 220.337L297.24 214.309L296.78 214.114L296.585 214.575L294.837 218.703L294.642 219.164L295.103 219.359L302.143 222.339C302.977 222.692 303.566 223.099 303.944 223.541C304.323 224.009 304.519 224.494 304.559 225.003L304.559 225.003L304.559 225.01C304.609 225.57 304.517 226.138 304.269 226.723C303.922 227.544 303.44 228.01 302.849 228.215L302.849 228.215L302.841 228.218C302.246 228.436 301.433 228.38 300.342 227.919L292.826 224.737L292.366 224.542L292.171 225.002L290.423 229.131L290.228 229.592L290.688 229.786L298.84 233.237C300.336 233.871 301.714 234.143 302.958 234.008C304.203 233.883 305.286 233.431 306.19 232.649C307.09 231.904 307.788 230.928 308.293 229.737C308.836 228.453 309.058 227.177 308.941 225.915C308.909 225.577 308.854 225.247 308.773 224.928Z" stroke="#006AA7"/>
<path d="M284.518 248.686L284.508 248.69L284.499 248.695C283.851 249.013 283.315 249.476 282.894 250.077C282.474 250.678 282.226 251.335 282.161 252.042L282.161 252.042L282.161 252.047C282.103 252.77 282.216 253.461 282.503 254.113L282.503 254.113L282.506 254.12C282.816 254.795 283.302 255.357 283.948 255.81C284.594 256.261 285.284 256.522 286.013 256.57C286.724 256.616 287.406 256.48 288.05 256.166C288.708 255.875 289.249 255.422 289.671 254.819C290.094 254.214 290.338 253.543 290.398 252.812C290.461 252.112 290.348 251.433 290.062 250.783C289.768 250.114 289.287 249.555 288.641 249.103C287.995 248.651 287.3 248.387 286.56 248.327L286.56 248.327L286.553 248.327C285.846 248.281 285.166 248.401 284.518 248.686Z" stroke="#006AA7"/>
<path d="M264.624 266.025L264.273 265.669L263.917 266.02L260.601 269.289L260.245 269.64L260.596 269.996L274.72 284.323L275.071 284.679L275.427 284.328L281.608 278.234L281.964 277.883L281.613 277.527L278.99 274.867L278.639 274.511L278.283 274.862L275.774 277.335L264.624 266.025Z" stroke="#006AA7"/>
<path d="M253.004 276.604L253.004 276.604L252.997 276.606C251.615 276.992 250.233 277.718 248.851 278.765C247.454 279.823 246.373 280.963 245.626 282.189L245.626 282.189L245.624 282.192C244.876 283.442 244.483 284.702 244.472 285.968L244.472 285.968L244.472 285.973C244.474 287.265 244.89 288.454 245.704 289.528C246.516 290.6 247.528 291.299 248.737 291.589C249.366 291.754 250.021 291.809 250.698 291.759C250.605 292.149 250.554 292.541 250.546 292.934C250.522 294.106 250.894 295.19 251.639 296.173C252.416 297.199 253.387 297.876 254.549 298.175C255.688 298.496 256.903 298.465 258.183 298.107C259.464 297.774 260.743 297.115 262.019 296.149C263.266 295.204 264.238 294.158 264.919 293.005C265.611 291.869 265.97 290.706 265.969 289.521C265.98 288.333 265.583 287.222 264.807 286.198C264.064 285.218 263.132 284.561 262.015 284.254L262.015 284.254L262.002 284.251C261.618 284.156 261.226 284.102 260.824 284.088C261.056 283.449 261.184 282.802 261.203 282.147L261.203 282.145C261.236 280.914 260.829 279.757 260.018 278.686C259.204 277.612 258.172 276.888 256.929 276.537L256.929 276.537L256.925 276.535C255.705 276.203 254.394 276.234 253.004 276.604ZM249.968 284.312L249.968 284.312L249.97 284.306C250.154 283.629 250.643 282.953 251.52 282.289C252.379 281.638 253.156 281.354 253.858 281.36C254.539 281.366 255.093 281.647 255.55 282.25C256.007 282.853 256.119 283.451 255.934 284.088L255.934 284.088L255.931 284.097C255.747 284.775 255.263 285.445 254.404 286.096C253.527 286.76 252.744 287.048 252.042 287.042L252.035 287.042L252.027 287.042C251.347 287.058 250.799 286.791 250.345 286.193C249.891 285.594 249.776 284.982 249.968 284.312ZM255.681 291.086L255.681 291.086L255.683 291.078C255.822 290.535 256.211 289.984 256.934 289.436C257.639 288.902 258.268 288.681 258.83 288.694C259.373 288.706 259.821 288.935 260.2 289.436C260.604 289.969 260.703 290.481 260.557 291.011C260.402 291.578 260.019 292.119 259.35 292.626C258.663 293.146 258.031 293.372 257.446 293.368L257.446 293.368L257.438 293.368C256.872 293.374 256.403 293.143 256.003 292.615C255.628 292.12 255.532 291.624 255.681 291.086Z" stroke="#006AA7"/>
<path d="M233.619 298.27C233.21 298.712 232.866 299.185 232.59 299.687C232.195 298.538 232.148 297.523 232.407 296.627L232.408 296.627L232.409 296.622C232.759 295.367 233.611 294.352 235.032 293.586C235.608 293.275 236.187 293.035 236.769 292.864C237.335 292.716 237.921 292.675 238.531 292.742L239.102 292.804L239.086 292.231L238.981 288.402L238.968 287.954L238.521 287.918C237.612 287.844 236.648 287.949 235.633 288.223C234.625 288.495 233.641 288.89 232.681 289.407C230.831 290.405 229.395 291.675 228.393 293.226C227.39 294.78 226.892 296.522 226.897 298.439C226.884 300.377 227.46 302.397 228.589 304.491C229.65 306.459 230.88 307.957 232.293 308.951C233.709 309.957 235.247 310.488 236.897 310.529C238.545 310.57 240.22 310.118 241.917 309.203C243.208 308.508 244.264 307.607 245.076 306.499C245.883 305.414 246.364 304.22 246.509 302.924L246.509 302.924L246.509 302.918C246.638 301.609 246.341 300.306 245.646 299.017C245.006 297.83 244.148 296.93 243.067 296.342L243.067 296.342L243.06 296.339C241.98 295.772 240.815 295.508 239.575 295.546L239.571 295.546C238.315 295.594 237.089 295.945 235.899 296.587C235.001 297.07 234.241 297.628 233.627 298.263L233.626 298.262L233.619 298.27ZM240.743 304.378L240.738 304.384L240.733 304.39C240.466 304.771 240.075 305.11 239.539 305.399C238.933 305.726 238.391 305.877 237.908 305.885L237.901 305.885L237.893 305.885C237.411 305.907 236.997 305.802 236.635 305.581L236.624 305.575L236.613 305.569C236.244 305.368 235.943 305.063 235.712 304.634C235.481 304.206 235.385 303.775 235.414 303.333L234.915 303.301L235.414 303.333C235.442 302.894 235.595 302.466 235.891 302.044C236.177 301.65 236.579 301.307 237.113 301.019C237.943 300.571 238.68 300.449 239.346 300.588C239.993 300.75 240.502 301.151 240.878 301.849C241.131 302.318 241.225 302.754 241.19 303.166L241.19 303.166L241.19 303.176C241.161 303.619 241.014 304.016 240.743 304.378Z" stroke="#006AA7"/>
<path d="M219.765 296.978L219.595 296.508L219.125 296.678L204.828 301.85L204.358 302.021L204.528 302.491L205.819 306.058L205.989 306.528L206.459 306.358L213.419 303.84L211.113 308.401C211.113 308.401 211.113 308.401 211.113 308.401C210.522 309.565 210.109 310.589 209.887 311.467C209.65 312.341 209.56 313.144 209.639 313.867C209.702 314.578 209.852 315.261 210.088 315.914C210.536 317.15 211.25 318.124 212.24 318.804C213.202 319.484 214.344 319.851 215.647 319.922C216.945 320.017 218.324 319.792 219.779 319.266C221.532 318.632 222.981 317.738 224.112 316.575C225.236 315.418 225.983 314.12 226.336 312.683L226.458 312.19L225.962 312.076L222.03 311.176L221.568 311.071L221.438 311.526C221.226 312.268 220.873 312.873 220.385 313.354C219.865 313.856 219.244 314.239 218.514 314.503C217.578 314.842 216.885 314.87 216.383 314.692L216.374 314.689L216.365 314.686C215.873 314.533 215.507 314.183 215.277 313.547C215.194 313.317 215.141 313.034 215.126 312.692L215.126 312.68L215.125 312.668C215.097 312.363 215.131 311.976 215.243 311.496C215.35 311.043 215.583 310.464 215.96 309.751L215.96 309.751L215.965 309.742L220.768 300.211L220.865 300.018L220.792 299.815L219.765 296.978Z" stroke="#006AA7"/>
<path d="M187.275 310.788L187.265 310.784L187.255 310.781C186.58 310.528 185.875 310.456 185.149 310.562C184.424 310.669 183.776 310.939 183.217 311.377L183.217 311.377L183.213 311.38C182.647 311.834 182.222 312.391 181.945 313.047L181.945 313.047L181.942 313.055C181.664 313.742 181.588 314.482 181.703 315.262C181.817 316.042 182.101 316.723 182.567 317.286C183.021 317.835 183.588 318.238 184.259 318.491C184.921 318.769 185.622 318.853 186.35 318.746C187.081 318.639 187.737 318.355 188.309 317.897C188.862 317.462 189.278 316.915 189.555 316.261C189.839 315.588 189.915 314.854 189.801 314.074C189.686 313.294 189.402 312.607 188.938 312.028L188.938 312.028L188.933 312.022C188.481 311.477 187.927 311.064 187.275 310.788Z" stroke="#006AA7"/>
</g>
</svg>
