<svg width="881" height="878" viewBox="132 122 625 633" fill="none" xmlns="http://www.w3.org/2000/svg">
  <path d="M672.817 302.444L672.817 302.447C673.206 305.247 674.142 307.996 675.619 310.69C677.078 313.353 678.866 315.574 680.985 317.346C683.114 319.144 685.422 320.451 687.909 321.259L687.909 321.26C690.444 322.082 693.052 322.376 695.729 322.142L695.732 322.141C698.447 321.889 701.078 321.062 703.62 319.669C706.193 318.259 708.291 316.495 709.903 314.373C711.54 312.244 712.695 309.888 713.366 307.31C714.055 304.761 714.212 302.103 713.842 299.339C713.488 296.599 712.568 293.881 711.092 291.187C709.632 288.524 707.836 286.288 705.701 284.484C703.57 282.685 701.236 281.371 698.701 280.548C696.166 279.726 693.558 279.432 690.881 279.666L690.881 279.666L690.875 279.667C688.209 279.935 685.605 280.769 683.064 282.161C680.524 283.553 678.42 285.3 676.76 287.403L676.76 287.403L676.756 287.408C675.119 289.536 673.955 291.875 673.267 294.421L673.266 294.426C672.595 297.006 672.446 299.68 672.817 302.444ZM685.967 310.093L685.964 310.09C684.828 309.172 683.862 307.993 683.069 306.545C682.275 305.097 681.792 303.632 681.612 302.145C681.431 300.658 681.547 299.21 681.959 297.797C682.389 296.416 683.086 295.121 684.056 293.911C685.071 292.72 686.332 291.709 687.843 290.881C689.388 290.034 690.917 289.517 692.433 289.319C693.973 289.152 695.447 289.276 696.861 289.689C698.277 290.103 699.553 290.769 700.693 291.69C701.847 292.642 702.823 293.837 703.616 295.285C704.409 296.732 704.892 298.198 705.073 299.684C705.253 301.171 705.128 302.602 704.7 303.981L704.7 303.981L704.698 303.989C704.286 305.401 703.59 306.693 702.605 307.869L702.605 307.869L702.598 307.877C701.634 309.078 700.385 310.103 698.841 310.949C697.298 311.795 695.762 312.296 694.231 312.462L694.23 312.462L694.22 312.464C692.699 312.661 691.236 312.553 689.824 312.141C688.409 311.728 687.125 311.046 685.967 310.093ZM709.512 282.27L709.512 282.27L709.509 282.282C709.241 283.407 709.394 284.497 709.959 285.528C710.524 286.558 711.354 287.262 712.438 287.609C713.54 287.961 714.654 287.816 715.746 287.217C716.838 286.618 717.56 285.759 717.856 284.639C718.146 283.539 718 282.461 717.435 281.43C716.87 280.4 716.034 279.684 714.942 279.305L714.942 279.305L714.93 279.301C713.828 278.948 712.714 279.094 711.622 279.693C710.53 280.291 709.808 281.151 709.512 282.27ZM714.832 291.978C714.542 293.078 714.688 294.157 715.253 295.187C715.817 296.216 716.645 296.919 717.726 297.267C718.844 297.653 719.969 297.526 721.066 296.925C722.163 296.323 722.875 295.443 723.151 294.293C723.44 293.195 723.293 292.119 722.729 291.09C722.164 290.059 721.334 289.356 720.25 289.009C719.148 288.656 718.034 288.802 716.942 289.401C715.85 289.999 715.128 290.859 714.832 291.978Z" stroke="#FECC00" />
  <path d="M690.248 338.772L689.781 338.95L689.959 339.417L692.995 347.364L693.173 347.831L693.64 347.653L731.439 333.215L731.906 333.036L731.728 332.569L728.692 324.622L728.514 324.155L728.047 324.334L690.248 338.772Z" stroke="#FECC00" />
  <path d="M702.697 376.712C704.039 378.564 705.564 379.881 707.279 380.626L707.279 380.626L707.285 380.628C709.038 381.363 710.854 381.483 712.716 380.99C714.39 380.547 715.703 379.85 716.605 378.866C717.509 377.906 718.123 376.8 718.437 375.552C718.788 374.361 718.956 373.087 718.947 371.732C718.937 370.399 718.839 369.088 718.651 367.8C718.512 366.57 718.414 365.424 718.355 364.363C718.298 363.321 718.361 362.477 718.527 361.818C718.672 361.305 718.984 360.999 719.516 360.858C720.071 360.711 720.64 360.865 721.268 361.491C721.886 362.108 722.458 363.271 722.936 365.076C723.27 366.337 723.46 367.677 723.505 369.096L723.506 369.104L723.506 369.111C723.593 370.529 723.424 372.006 722.992 373.542L722.843 374.071L723.384 374.169L729.961 375.362L730.403 375.442L730.53 375.011C731.005 373.394 731.18 371.503 731.069 369.348C730.959 367.201 730.644 365.142 730.123 363.174C729.386 360.389 728.336 358.078 726.959 356.26C725.623 354.441 724.085 353.148 722.335 352.415L722.336 352.415L722.328 352.412C720.583 351.714 718.756 351.619 716.865 352.12C715.193 352.562 713.864 353.244 712.922 354.193L712.922 354.193L712.913 354.203C712.006 355.163 711.375 356.274 711.026 357.531C710.685 358.756 710.52 360.049 710.53 361.405L710.529 361.405L710.53 361.419C710.575 362.736 710.668 364.022 710.81 365.277L710.81 365.279C710.96 366.552 711.081 367.718 711.175 368.778C711.266 369.81 711.213 370.622 711.042 371.233L711.038 371.25L711.034 371.266C710.974 371.555 710.869 371.759 710.737 371.903C710.606 372.046 710.426 372.157 710.171 372.224C709.566 372.385 709.005 372.23 708.438 371.648L708.438 371.648L708.431 371.642C707.873 371.091 707.317 369.932 706.818 368.045C706.375 366.371 706.16 364.595 706.177 362.716C706.239 360.857 706.496 359.199 706.945 357.736L707.11 357.196L706.554 357.097L699.924 355.918L699.505 355.843L699.365 356.246C698.806 357.849 698.53 359.861 698.518 362.266L698.518 362.266L698.518 362.275C698.552 364.716 698.895 367.168 699.547 369.63C700.311 372.517 701.356 374.885 702.697 376.712ZM702.697 376.712C702.697 376.712 702.697 376.712 702.696 376.711L703.101 376.418M702.697 376.712C702.698 376.713 702.698 376.713 702.698 376.714L703.101 376.418M703.101 376.418C701.807 374.654 700.784 372.349 700.03 369.502C699.388 367.078 699.051 364.666 699.018 362.268M703.101 376.418C704.405 378.216 705.864 379.466 707.478 380.167C709.128 380.859 710.831 380.972 712.588 380.507C714.205 380.079 715.422 379.418 716.238 378.525C717.09 377.623 717.662 376.588 717.955 375.42L699.018 362.268M699.018 362.268C699.03 359.896 699.303 357.943 699.837 356.41L699.018 362.268ZM723.601 373.193C723.952 371.78 724.087 370.409 724.005 369.08C723.959 367.626 723.763 366.249 723.419 364.948C722.936 363.121 722.336 361.85 721.621 361.137C720.906 360.424 720.161 360.17 719.388 360.374C718.685 360.56 718.237 360.998 718.044 361.689C717.86 362.415 717.797 363.315 717.856 364.39C717.915 365.465 718.015 366.623 718.155 367.864L723.601 373.193ZM723.601 373.193L723.562 373.185L723.473 373.677L723.954 373.813C723.959 373.798 723.963 373.782 723.967 373.767L730.05 374.87C730.505 373.321 730.678 371.488 730.57 369.374C730.461 367.259 730.151 365.235 729.64 363.302C728.914 360.561 727.887 358.313 726.558 356.559C725.264 354.795 723.792 353.568 722.142 352.876L723.601 373.193Z" stroke="#FECC00" />
  <path d="M708.211 397.108L708.208 397.112C706.658 399.396 706.165 402.317 706.657 405.819C706.844 407.152 707.172 408.413 707.643 409.599L707.643 409.599L707.647 409.609C708.162 410.832 708.806 411.864 709.588 412.693L709.854 412.975L710.193 412.788L715.815 409.685L716.403 409.36L715.923 408.89C715.16 408.142 714.684 407.165 714.51 405.927C714.368 404.915 714.553 404.131 715.011 403.521C715.503 402.907 716.277 402.494 717.411 402.335L728.742 400.743L729.689 407.484L729.758 407.979L730.253 407.91L736.734 406.999L737.229 406.93L737.159 406.435L736.212 399.694L742.791 398.769L743.286 398.7L743.217 398.205L742.033 389.78L741.963 389.285L741.468 389.355L734.889 390.279L734.329 386.292L734.26 385.797L733.764 385.867L727.284 386.777L726.789 386.847L726.859 387.342L727.419 391.329L715.98 392.936C712.433 393.434 709.81 394.803 708.211 397.108Z" stroke="#FECC00" />
  <path d="M710.108 428.09L710.106 428.094C709.134 430.103 708.66 432.364 708.673 434.865C708.686 437.198 709.224 439.349 710.294 441.311L710.296 441.313C710.734 442.104 711.251 442.818 711.847 443.455L709.655 443.467L709.155 443.47L709.158 443.97L709.2 452.04L709.203 452.54L709.703 452.538L739.04 452.383L739.54 452.38L739.538 451.88L739.493 443.373L739.49 442.873L738.99 442.876L724.485 442.953C722.756 442.962 721.345 442.687 720.23 442.154C719.146 441.618 718.349 440.89 717.818 439.974C717.313 439.042 717.051 437.965 717.045 436.73C717.036 434.948 717.555 433.62 718.55 432.676C719.578 431.77 721.229 431.264 723.605 431.251L738.928 431.17L739.428 431.168L739.426 430.668L739.381 422.161L739.378 421.661L738.878 421.664L722.301 421.751C719.229 421.767 716.653 422.317 714.602 423.433L714.602 423.433L714.599 423.434C712.592 424.546 711.09 426.1 710.108 428.09Z" stroke="#FECC00" />
  <path d="M734.349 491.444L731.963 491.066C732.775 490.468 733.484 489.761 734.088 488.943C735.446 487.161 736.317 485.007 736.715 482.498C737.153 479.732 736.962 477.117 736.132 474.661L736.132 474.661L736.131 474.658C735.294 472.237 733.886 470.164 731.914 468.443L731.914 468.443L731.912 468.442C729.953 466.749 727.506 465.68 724.592 465.218C721.712 464.761 719.056 465.023 716.637 466.019L716.637 466.019L716.628 466.023C714.258 467.054 712.281 468.589 710.703 470.622L710.703 470.622L710.697 470.63C709.149 472.709 708.158 475.136 707.72 477.902C707.322 480.413 707.485 482.732 708.226 484.848C708.497 485.622 708.849 486.349 709.281 487.029L709.211 487.018C706.672 486.616 704.95 485.666 703.941 484.238L703.941 484.238L703.937 484.232C702.932 482.849 702.595 480.749 703.058 477.826C703.339 476.05 703.923 474.281 704.814 472.516L704.814 472.516L704.816 472.511C705.665 470.78 706.663 469.418 707.803 468.409L708.253 468.011L707.779 467.641L702.276 463.345L701.941 463.084L701.629 463.372C699.973 464.905 698.616 466.91 697.55 469.37C696.446 471.852 695.674 474.479 695.235 477.248C694.393 482.566 695.027 486.929 697.223 490.272C699.434 493.637 703.335 495.712 708.8 496.579L732.929 500.403L733.423 500.481L733.501 499.987L734.764 492.016L734.842 491.522L734.349 491.444ZM724.432 488.619L724.432 488.619L724.425 488.622C723.381 489.062 722.188 489.185 720.827 488.97C719.506 488.76 718.405 488.274 717.508 487.522C716.607 486.767 715.957 485.815 715.557 484.654C715.193 483.5 715.115 482.225 715.337 480.821C715.56 479.417 716.028 478.229 716.731 477.243C717.471 476.263 718.388 475.539 719.488 475.063C720.572 474.627 721.768 474.506 723.087 474.715C724.446 474.931 725.542 475.417 726.399 476.157C727.298 476.949 727.928 477.917 728.293 479.07L728.293 479.07L728.297 479.082C728.695 480.241 728.791 481.516 728.568 482.918C728.346 484.32 727.861 485.503 727.124 486.482L727.124 486.482L727.117 486.492C726.414 487.474 725.521 488.18 724.432 488.619Z" stroke="#FECC00" />
  <path d="M695.291 525.502L694.816 525.348L694.662 525.823L692.209 533.398L692.055 533.873L692.531 534.027L708.458 539.185C712.796 540.59 716.472 540.453 719.406 538.648C722.307 536.863 724.437 533.766 725.837 529.441C726.568 527.185 726.988 524.867 727.096 522.488L726.597 522.465L727.096 522.488C727.205 520.106 726.964 517.945 726.365 516.011L726.236 515.596L725.807 515.666L719.211 516.74L718.61 516.838L718.823 517.408C719.269 518.604 719.492 519.954 719.483 521.467L719.483 521.467L719.483 521.474C719.497 523.031 719.27 524.526 718.806 525.961C718.119 528.082 717.171 529.395 716.024 530.032L716.024 530.032L716.017 530.036C714.965 530.643 713.75 530.79 712.334 530.43L714.258 524.488C715.187 521.619 715.587 519.134 715.426 517.047C715.3 514.986 714.728 513.271 713.674 511.939L713.674 511.939L713.668 511.932C712.612 510.651 711.204 509.733 709.464 509.17C707.786 508.626 706.117 508.571 704.472 509.013C702.824 509.455 701.341 510.371 700.021 511.737L700.021 511.737L700.015 511.744C698.724 513.131 697.724 514.95 697.002 517.181C696.188 519.693 695.986 521.946 696.442 523.919C696.629 524.726 696.92 525.472 697.315 526.157L695.291 525.502ZM706.657 528.609L704.37 527.868C703.403 527.058 702.792 526.086 702.515 524.944C702.261 523.766 702.334 522.546 702.745 521.276C703.183 519.925 703.79 519.002 704.533 518.443C705.279 517.944 706.074 517.835 706.966 518.124C707.764 518.382 708.319 518.88 708.659 519.64C708.971 520.392 708.909 521.653 708.3 523.533L706.657 528.609Z" stroke="#FECC00" />
  <path d="M708.378 568.719C708.354 567.775 708.224 566.865 707.989 565.989L710.026 567.016L710.472 567.241L710.698 566.794L714.355 559.539L714.58 559.093L714.134 558.868L687.937 545.66L687.49 545.435L687.265 545.882L683.436 553.478L683.211 553.924L683.657 554.15L696.609 560.679C698.187 561.475 699.314 562.36 700.03 563.319C700.736 564.319 701.083 565.352 701.094 566.424L701.094 566.424L701.094 566.43C701.121 567.577 700.854 568.714 700.282 569.849C699.478 571.444 698.419 572.371 697.123 572.726L697.123 572.726L697.114 572.729C695.806 573.112 694.149 572.854 692.094 571.817L678.265 564.846L677.818 564.621L677.593 565.067L673.763 572.663L673.538 573.11L673.985 573.335L688.982 580.896C691.692 582.262 694.19 582.921 696.463 582.826C698.752 582.749 700.771 582.058 702.503 580.748C704.237 579.498 705.64 577.796 706.717 575.658C707.879 573.354 708.438 571.039 708.378 568.719Z" stroke="#FECC00" />
  <path d="M649.492 608.157L649.111 607.834L648.787 608.215L643.076 614.955L642.752 615.336L643.134 615.659L666.381 635.363L658.806 644.3L658.483 644.681L658.864 645.004L664.356 649.659L664.737 649.982L665.06 649.6L686.568 624.225L686.891 623.843L686.51 623.52L681.019 618.866L680.637 618.542L680.314 618.924L672.739 627.861L649.492 608.157Z" stroke="#FECC00" />
  <path d="M624.613 635.656L624.609 635.657C622.451 636.226 620.426 637.337 618.535 638.976C616.773 640.503 615.49 642.312 614.697 644.401L614.695 644.404C614.38 645.251 614.175 646.109 614.079 646.976L612.643 645.319L612.316 644.941L611.938 645.268L605.838 650.553L605.46 650.88L605.788 651.258L624.998 673.432L625.326 673.81L625.704 673.483L632.133 667.912L632.511 667.585L632.184 667.207L622.685 656.244C621.554 654.937 620.844 653.687 620.523 652.493C620.224 651.322 620.258 650.243 620.608 649.243C620.988 648.253 621.635 647.354 622.568 646.545C623.915 645.378 625.261 644.908 626.625 645.049C627.982 645.24 629.441 646.165 630.997 647.961L641.031 659.542L641.358 659.92L641.736 659.593L648.166 654.022L648.544 653.695L648.216 653.317L637.361 640.787C635.35 638.466 633.256 636.868 631.074 636.037L631.074 636.037L631.071 636.035C628.921 635.235 626.764 635.106 624.613 635.656Z" stroke="#FECC00" />
  <path d="M595.387 658.451L595.107 658.037L594.693 658.316L587.636 663.067L587.222 663.346L587.501 663.761L610.1 697.324L610.379 697.739L610.794 697.46L617.851 692.708L618.265 692.429L617.986 692.014L595.387 658.451Z" stroke="#FECC00" />
  <path d="M576.819 670.328L576.575 669.891L576.139 670.136L568.716 674.291L568.279 674.535L568.523 674.971L588.287 710.279L588.531 710.715L588.967 710.471L596.39 706.316L596.827 706.072L596.582 705.635L576.819 670.328Z" stroke="#FECC00" />
  <path d="M552.525 684.197L552.522 684.197C549.579 683.956 546.528 684.498 543.378 685.806C540.881 686.842 538.812 688.141 537.185 689.712L537.185 689.712L537.179 689.717C535.569 691.319 534.417 693.123 533.733 695.128L533.588 695.554L533.997 695.743L540.058 698.542L540.522 698.756L540.726 698.287C541.246 697.095 541.945 696.077 542.822 695.229L542.822 695.229L542.826 695.225C543.664 694.398 544.774 693.689 546.172 693.109C547.726 692.464 549.179 692.183 550.534 692.247C551.864 692.357 553.049 692.796 554.1 693.565C554.503 693.884 554.873 694.246 555.208 694.653L535.303 702.912L534.885 703.086L535.016 703.519C535.122 703.87 535.236 704.238 535.356 704.623L535.357 704.626C535.493 705.052 535.627 705.426 535.76 705.744C536.999 708.731 538.708 711.054 540.899 712.684C543.092 714.338 545.544 715.281 548.246 715.506C550.925 715.778 553.627 715.343 556.347 714.215C559.169 713.044 561.458 711.368 563.197 709.181C564.947 707.032 566.03 704.586 566.441 701.854L566.441 701.854L566.441 701.851C566.835 699.154 566.442 696.404 565.284 693.612C564.137 690.849 562.449 688.637 560.216 686.992L560.213 686.99C557.994 685.381 555.428 684.452 552.525 684.197ZM545.393 705.181L557.623 700.107C557.729 700.741 557.749 701.351 557.685 701.936L557.685 701.936L557.684 701.942C557.568 703.164 557.153 704.223 556.444 705.133L556.444 705.133L556.441 705.137C555.71 706.095 554.719 706.841 553.447 707.369C552.176 707.897 550.966 708.064 549.81 707.892L549.81 707.892L549.798 707.891C548.648 707.75 547.611 707.309 546.679 706.562C546.203 706.18 545.773 705.72 545.393 705.181Z" stroke="#FECC00" />
  <path d="M515.468 726.203C516.172 725.573 516.782 724.885 517.297 724.139L517.833 726.356L517.951 726.842L518.437 726.724L526.334 724.814L526.82 724.696L526.703 724.21L519.805 695.695L519.687 695.209L519.201 695.326L510.933 697.327L510.447 697.444L510.564 697.93L513.975 712.029C514.39 713.745 514.446 715.178 514.178 716.345C513.873 717.531 513.311 718.463 512.501 719.166L512.501 719.166L512.496 719.17C511.64 719.933 510.6 720.466 509.365 720.765C507.629 721.185 506.237 720.978 505.127 720.22L505.127 720.22L505.12 720.216C503.98 719.467 503.104 718.036 502.563 715.799L498.922 700.747L498.804 700.261L498.318 700.378L490.05 702.378L489.564 702.496L489.681 702.982L493.63 719.307C494.344 722.256 495.459 724.586 497.003 726.258C498.544 727.951 500.378 729.043 502.498 729.515C504.573 730.027 506.778 729.993 509.105 729.431C511.613 728.824 513.739 727.751 515.468 726.203Z" stroke="#FECC00" />
  <path d="M453.245 715.426L453.236 715.421L453.227 715.416C452.08 714.824 450.844 714.546 449.526 714.582C448.208 714.618 447.004 714.962 445.924 715.619L445.924 715.619L445.919 715.622C444.814 716.311 443.941 717.211 443.309 718.32L443.309 718.32L443.305 718.326C442.669 719.483 442.376 720.78 442.414 722.204C442.453 723.628 442.816 724.892 443.517 725.979C444.209 727.051 445.129 727.886 446.271 728.478C447.386 729.112 448.609 729.409 449.929 729.373C451.251 729.337 452.473 728.972 453.586 728.279C454.66 727.625 455.515 726.741 456.146 725.635C456.787 724.512 457.081 723.23 457.042 721.806C457.003 720.381 456.64 719.102 455.942 717.982L455.942 717.982L455.937 717.976C455.248 716.908 454.349 716.056 453.245 715.426Z" stroke="#FECC00" />
  <path d="M404.114 704.232L404.191 703.738L403.697 703.661L394.969 702.299L394.475 702.222L394.398 702.716L388.514 740.432L388.437 740.926L388.931 741.003L405.203 743.542L405.697 743.619L405.774 743.125L406.867 736.12L406.944 735.626L406.45 735.549L399.401 734.45L404.114 704.232Z" stroke="#FECC00" />
  <path d="M375.025 698.892L375.025 698.892L375.02 698.888C372.923 697.261 370.309 695.996 367.193 695.084C364.042 694.162 361.141 693.812 358.497 694.052L358.493 694.053C355.808 694.318 353.522 695.12 351.656 696.478L351.652 696.481C349.768 697.882 348.48 699.776 347.788 702.142C347.096 704.505 347.177 706.731 348.057 708.797C348.569 710.08 349.343 711.257 350.369 712.329C349.468 712.652 348.642 713.078 347.895 713.612C346.171 714.835 344.995 716.539 344.363 718.696C343.702 720.954 343.769 723.097 344.586 725.104C345.35 727.116 346.716 728.874 348.656 730.379C350.556 731.913 352.95 733.094 355.822 733.935C358.628 734.756 361.263 735.045 363.721 734.789C366.169 734.567 368.268 733.823 369.998 732.538C371.732 731.277 372.924 729.504 373.584 727.249C374.215 725.094 374.162 723.033 373.406 721.084L373.406 721.084L373.401 721.072C373.044 720.218 372.572 719.413 371.986 718.656C373.425 718.304 374.719 717.732 375.863 716.935L375.864 716.934C377.684 715.658 378.934 713.822 379.626 711.46C380.318 709.094 380.255 706.804 379.423 704.609L379.421 704.604C378.583 702.456 377.109 700.553 375.025 698.892ZM359.967 702.202L359.967 702.203L359.974 702.2C361.335 701.668 363.027 701.668 365.089 702.272C367.114 702.864 368.523 703.771 369.384 704.954C370.231 706.119 370.446 707.426 370.006 708.928C369.567 710.43 368.688 711.394 367.363 711.884L367.363 711.884L367.354 711.888C365.992 712.42 364.316 712.424 362.291 711.831C360.229 711.228 358.804 710.315 357.944 709.134L357.94 709.127L357.935 709.121C357.049 707.981 356.816 706.693 357.254 705.196C357.692 703.7 358.59 702.719 359.967 702.202ZM356.092 718.565L356.092 718.565L356.1 718.562C357.208 718.112 358.599 718.1 360.31 718.6C361.984 719.09 363.132 719.844 363.825 720.823C364.506 721.786 364.675 722.873 364.306 724.135C363.915 725.47 363.159 726.319 362.039 726.752C360.885 727.199 359.524 727.215 357.926 726.747C356.29 726.269 355.137 725.515 354.407 724.518L354.407 724.518L354.402 724.512C353.66 723.531 353.467 722.406 353.856 721.077C354.224 719.821 354.965 719.002 356.092 718.565Z" stroke="#FECC00" />
  <path d="M320.329 693.912C318.874 693.752 317.472 693.82 316.127 694.12C317.592 691.662 319.343 690.091 321.358 689.341L321.363 689.34C323.807 688.404 326.442 688.578 329.305 689.921C330.459 690.462 331.508 691.09 332.455 691.806C333.366 692.538 334.128 693.428 334.743 694.481L335.032 694.977L335.484 694.623L341.201 690.137L341.554 689.86L341.317 689.479C340.434 688.061 339.222 686.748 337.692 685.536C336.167 684.329 334.482 683.293 332.638 682.429C329.085 680.763 325.601 680.029 322.192 680.248C318.779 680.468 315.643 681.646 312.792 683.77C309.899 685.886 307.512 688.978 305.618 693.016C303.837 696.816 302.968 700.314 303.048 703.501C303.112 706.714 304.015 709.571 305.762 712.054C307.508 714.536 310.022 716.534 313.278 718.061C315.742 719.216 318.243 719.792 320.778 719.779C323.269 719.783 325.553 719.186 327.621 717.984L327.621 717.984L327.626 717.981C329.679 716.751 331.274 714.899 332.421 712.452C333.476 710.204 333.859 707.966 333.546 705.752L333.547 705.752L333.545 705.745C333.202 703.535 332.321 701.533 330.908 699.745L330.906 699.742C329.46 697.939 327.598 696.508 325.33 695.444C323.613 694.639 321.949 694.126 320.34 693.913L320.34 693.913L320.329 693.912ZM319.114 711.673L319.106 711.673L319.098 711.673C318.134 711.697 317.106 711.464 316.01 710.95C314.779 710.372 313.873 709.678 313.261 708.879L313.256 708.873L313.251 708.867C312.621 708.094 312.275 707.261 312.194 706.362L312.193 706.35L312.191 706.338C312.067 705.454 312.21 704.563 312.635 703.655C313.061 702.747 313.664 702.049 314.445 701.544C315.223 701.041 316.131 700.771 317.185 700.744C318.187 700.734 319.232 700.977 320.326 701.49C322.02 702.285 323.133 703.339 323.727 704.635C324.269 705.935 324.217 707.299 323.53 708.764C323.07 709.745 322.459 710.453 321.705 710.92L321.705 710.92L321.697 710.925C320.916 711.43 320.059 711.679 319.114 711.673Z" stroke="#FECC00" />
  <path d="M306.321 670.629L306.598 670.212L306.181 669.936L282.144 653.987L281.727 653.71L281.451 654.127L277.471 660.125L277.194 660.542L277.611 660.818L290.255 669.207L279.583 671.036C277.156 671.448 275.163 671.969 273.615 672.605C272.048 673.218 270.773 673.964 269.81 674.855C268.825 675.731 267.977 676.701 267.27 677.767C265.935 679.78 265.292 681.878 265.37 684.051C265.418 686.193 266.118 688.27 267.444 690.278C268.724 692.301 270.577 694.108 272.984 695.705C275.883 697.629 278.82 698.8 281.792 699.198C284.754 699.596 287.496 699.276 290.005 698.224L290.473 698.028L290.27 697.562L287.199 690.551L287.009 690.117L286.565 690.284C285.128 690.824 283.729 690.981 282.36 690.767C280.942 690.53 279.595 689.991 278.318 689.144C276.701 688.071 275.78 686.971 275.442 685.867L275.439 685.858L275.436 685.849C275.06 684.771 275.22 683.672 275.992 682.507C276.28 682.074 276.685 681.641 277.218 681.211L277.227 681.203L277.236 681.195C277.717 680.766 278.391 680.357 279.277 679.975C280.138 679.604 281.326 679.297 282.857 679.065L282.857 679.065L282.867 679.063L302.824 675.616L303.036 675.58L303.155 675.4L306.321 670.629Z" stroke="#FECC00" />
  <path d="M248.502 637.068L248.5 637.058L248.497 637.048C248.141 635.807 247.494 634.717 246.564 633.783C245.633 632.849 244.557 632.209 243.338 631.875L243.338 631.875L243.332 631.873C242.072 631.542 240.819 631.525 239.579 631.826L239.579 631.826L239.571 631.828C238.294 632.158 237.149 632.835 236.14 633.841C235.13 634.846 234.46 635.978 234.15 637.234C233.845 638.472 233.87 639.715 234.223 640.952C234.527 642.197 235.15 643.291 236.081 644.226C237.015 645.163 238.12 645.802 239.387 646.136C240.6 646.468 241.829 646.484 243.067 646.184C244.324 645.879 245.458 645.213 246.467 644.207C247.476 643.202 248.158 642.06 248.493 640.783L248.493 640.783L248.495 640.776C248.799 639.541 248.802 638.303 248.502 637.068Z" stroke="#FECC00" />
  <path d="M218.728 588.339L218.728 588.337C218.18 585.562 217.089 582.872 215.462 580.266C213.853 577.69 211.942 575.574 209.726 573.925C207.498 572.251 205.119 571.078 202.59 570.412L202.59 570.412C200.012 569.735 197.392 569.59 194.732 569.976L194.73 569.977C192.033 570.383 189.454 571.358 186.995 572.894C184.507 574.448 182.512 576.328 181.023 578.538C179.51 580.757 178.491 583.174 177.968 585.786C177.425 588.37 177.419 591.034 177.946 593.772C178.455 596.487 179.528 599.149 181.155 601.754C182.764 604.33 184.684 606.461 186.918 608.14C189.148 609.815 191.552 610.994 194.131 611.671C196.708 612.348 199.329 612.493 201.988 612.107L201.988 612.107L201.995 612.106C204.641 611.687 207.193 610.706 209.65 609.172C212.107 607.638 214.109 605.774 215.647 603.58L215.647 603.58L215.65 603.575C217.163 601.357 218.192 598.956 218.735 596.374L218.736 596.37C219.259 593.756 219.255 591.078 218.728 588.339ZM205.164 581.451L205.168 581.453C206.353 582.306 207.385 583.427 208.259 584.828C209.134 586.228 209.7 587.664 209.964 589.137C210.229 590.612 210.195 592.064 209.864 593.499C209.514 594.902 208.892 596.235 207.993 597.498C207.046 598.745 205.845 599.825 204.384 600.738C202.889 601.672 201.392 602.275 199.89 602.559C198.362 602.813 196.883 602.772 195.448 602.441C194.01 602.108 192.699 601.515 191.509 600.66C190.302 599.776 189.26 598.638 188.386 597.238C187.512 595.838 186.946 594.402 186.681 592.929C186.416 591.454 186.46 590.019 186.809 588.618L186.809 588.618L186.811 588.609C187.142 587.177 187.764 585.847 188.68 584.617L188.68 584.617L188.686 584.609C189.58 583.355 190.769 582.26 192.262 581.328C193.755 580.395 195.26 579.808 196.779 579.554L196.779 579.555L196.79 579.553C198.297 579.269 199.764 579.294 201.197 579.625C202.633 579.957 203.954 580.565 205.164 581.451ZM183.239 610.567L183.239 610.567L183.241 610.555C183.445 609.416 183.23 608.337 182.608 607.34C181.985 606.343 181.117 605.688 180.015 605.403C178.894 605.114 177.791 605.323 176.734 605.982C175.678 606.642 175.006 607.542 174.774 608.676C174.547 609.791 174.754 610.859 175.377 611.856C175.999 612.853 176.874 613.519 177.987 613.836L177.987 613.836L177.999 613.839C179.12 614.129 180.223 613.92 181.279 613.26C182.335 612.6 183.007 611.701 183.239 610.567ZM177.375 601.177C177.603 600.062 177.396 598.994 176.773 597.997C176.152 597.002 175.285 596.347 174.186 596.062C173.048 595.74 171.932 595.93 170.871 596.593C169.81 597.256 169.149 598.175 168.938 599.339C168.713 600.452 168.921 601.518 169.542 602.513C170.165 603.51 171.033 604.165 172.135 604.45C173.256 604.739 174.359 604.53 175.415 603.87C176.472 603.211 177.144 602.311 177.375 601.177Z" stroke="#FECC00" />
  <path d="M199.257 553.058L199.713 552.854L199.508 552.397L196.026 544.636L195.821 544.18L195.365 544.384L158.448 560.948L157.992 561.153L158.197 561.609L161.679 569.371L161.884 569.827L162.34 569.622L199.257 553.058Z" stroke="#FECC00" />
  <path d="M184.675 515.87C183.23 514.098 181.633 512.87 179.878 512.224L179.878 512.224L179.872 512.222C178.08 511.588 176.26 511.571 174.429 512.169C172.783 512.707 171.512 513.477 170.668 514.511C169.819 515.521 169.27 516.66 169.027 517.924C168.745 519.133 168.649 520.415 168.735 521.766C168.821 523.097 168.993 524.4 169.254 525.675C169.463 526.896 169.626 528.034 169.745 529.091C169.861 530.127 169.847 530.973 169.718 531.641C169.602 532.162 169.309 532.485 168.785 532.656C168.24 532.834 167.663 532.712 167 532.123C166.348 531.542 165.711 530.413 165.131 528.638C164.726 527.399 164.46 526.072 164.334 524.657L164.333 524.65L164.332 524.643C164.165 523.231 164.25 521.748 164.594 520.189L164.712 519.653L164.167 519.585L157.533 518.769L157.086 518.714L156.984 519.152C156.602 520.793 156.535 522.691 156.768 524.836L157.264 524.782L156.768 524.836C157 526.974 157.432 529.011 158.064 530.946C158.958 533.685 160.138 535.932 161.616 537.669C163.053 539.409 164.662 540.612 166.45 541.245L166.45 541.245L166.458 541.248C168.24 541.846 170.069 541.836 171.929 541.229C173.573 540.692 174.861 539.936 175.748 538.934L175.748 538.934L175.756 538.925C176.607 537.914 177.173 536.769 177.451 535.494C177.722 534.251 177.813 532.952 177.726 531.598L177.726 531.598L177.725 531.585C177.605 530.272 177.439 528.994 177.226 527.749L177.225 527.747C177.004 526.485 176.816 525.327 176.663 524.274C176.513 523.249 176.519 522.435 176.655 521.815L176.659 521.798L176.661 521.782C176.705 521.49 176.799 521.281 176.922 521.129C177.044 520.979 177.219 520.858 177.469 520.776C178.064 520.582 178.632 520.704 179.232 521.253L179.232 521.253L179.239 521.259C179.828 521.777 180.448 522.902 181.054 524.758C181.592 526.404 181.907 528.165 181.997 530.042C182.041 531.901 181.878 533.572 181.514 535.058L181.379 535.607L181.94 535.674L188.626 536.473L189.049 536.524L189.166 536.114C189.633 534.482 189.794 532.457 189.669 530.056L189.669 530.056L189.669 530.047C189.496 527.612 189.014 525.183 188.223 522.762C187.296 519.923 186.118 517.619 184.675 515.87ZM184.675 515.87C184.675 515.871 184.676 515.871 184.676 515.872L184.289 516.188M184.675 515.87C184.675 515.87 184.675 515.87 184.674 515.869L184.289 516.188M184.289 516.188C185.681 517.875 186.834 520.118 187.748 522.917C188.527 525.302 189.001 527.69 189.17 530.082M184.289 516.188C182.885 514.466 181.357 513.301 179.706 512.693C178.019 512.097 176.312 512.08 174.584 512.645C172.995 513.164 171.818 513.892 171.053 514.83C170.254 515.78 169.742 516.846 169.516 518.028L189.17 530.082M189.17 530.082C189.293 532.451 189.132 534.416 188.685 535.977L189.17 530.082ZM164.005 520.573C163.735 522.004 163.679 523.38 163.836 524.702C163.965 526.151 164.238 527.515 164.656 528.794C165.243 530.591 165.913 531.825 166.668 532.496C167.423 533.168 168.18 533.379 168.94 533.131C169.631 532.905 170.054 532.442 170.208 531.742C170.35 531.007 170.361 530.105 170.242 529.035C170.122 527.965 169.956 526.814 169.745 525.583L164.005 520.573ZM164.005 520.573L164.045 520.578L164.106 520.082L163.617 519.974C163.614 519.989 163.611 520.005 163.607 520.02L157.471 519.265C157.105 520.838 157.037 522.677 157.265 524.782C157.494 526.887 157.918 528.89 158.539 530.791C159.419 533.487 160.573 535.672 161.999 537.348C163.392 539.035 164.931 540.177 166.617 540.774L164.005 520.573Z" stroke="#FECC00" />
  <path d="M178.001 495.842L178.004 495.838C179.421 493.47 179.747 490.525 179.057 487.057C178.794 485.737 178.395 484.497 177.858 483.339L177.858 483.339L177.853 483.33C177.27 482.138 176.567 481.145 175.74 480.361L175.458 480.095L175.13 480.301L169.694 483.718L169.125 484.076L169.631 484.518C170.435 485.221 170.966 486.17 171.21 487.396C171.41 488.398 171.269 489.192 170.847 489.827C170.391 490.468 169.641 490.924 168.519 491.147L157.297 493.381L155.968 486.704L155.87 486.214L155.38 486.312L148.962 487.589L148.472 487.687L148.569 488.177L149.898 494.853L143.382 496.15L142.892 496.248L142.989 496.738L144.65 505.081L144.748 505.572L145.238 505.474L151.754 504.177L152.54 508.126L152.637 508.616L153.128 508.519L159.546 507.241L160.036 507.144L159.938 506.653L159.152 502.705L170.482 500.45C173.994 499.751 176.536 498.234 178.001 495.842Z" stroke="#FECC00" />
  <path d="M174.35 465.02L174.351 465.017C175.208 462.955 175.552 460.671 175.397 458.174C175.252 455.846 174.592 453.729 173.412 451.832L173.411 451.829C172.928 451.064 172.371 450.381 171.74 449.779L173.928 449.642L174.427 449.611L174.396 449.112L173.894 441.057L173.863 440.558L173.364 440.589L144.083 442.412L143.584 442.443L143.615 442.942L144.144 451.433L144.175 451.932L144.674 451.9L159.151 450.999C160.876 450.892 162.301 451.086 163.445 451.555C164.557 452.028 165.394 452.709 165.977 453.594C166.533 454.496 166.856 455.557 166.933 456.789C167.044 458.567 166.601 459.923 165.661 460.922C164.686 461.884 163.066 462.484 160.695 462.632L145.401 463.584L144.902 463.615L144.933 464.114L145.461 472.604L145.492 473.103L145.992 473.072L162.537 472.042C165.603 471.852 168.143 471.156 170.128 469.926L170.128 469.926L170.131 469.924C172.071 468.7 173.482 467.063 174.35 465.02Z" stroke="#FECC00" />
  <path d="M146.546 403.129L148.95 403.37C148.173 404.014 147.505 404.76 146.949 405.61C145.695 407.467 144.947 409.667 144.693 412.195C144.413 414.981 144.752 417.581 145.72 419.986L145.72 419.986L145.722 419.989C146.695 422.358 148.219 424.348 150.285 425.954L150.285 425.954L150.287 425.955C152.339 427.534 154.843 428.462 157.779 428.758C160.679 429.05 163.317 428.638 165.675 427.506L165.675 427.506L165.684 427.501C167.991 426.337 169.877 424.692 171.337 422.573L171.337 422.573L171.343 422.564C172.771 420.401 173.622 417.921 173.902 415.135C174.156 412.605 173.862 410.299 173.002 408.229C172.688 407.472 172.295 406.766 171.824 406.111L171.895 406.118C174.453 406.376 176.226 407.225 177.315 408.594L177.315 408.594L177.319 408.599C178.401 409.923 178.857 412.001 178.561 414.946C178.381 416.735 177.899 418.534 177.11 420.346L177.11 420.346L177.107 420.352C176.359 422.128 175.44 423.544 174.359 424.617L173.932 425.04L174.427 425.383L180.165 429.358L180.514 429.601L180.809 429.294C182.376 427.67 183.616 425.592 184.541 423.074C185.502 420.534 186.123 417.868 186.404 415.078C186.943 409.72 186.061 405.401 183.679 402.188C181.28 398.954 177.267 397.104 171.762 396.55L147.455 394.104L146.957 394.053L146.907 394.551L146.099 402.581L146.049 403.079L146.546 403.129ZM156.608 405.385L156.608 405.385L156.614 405.382C157.632 404.884 158.816 404.692 160.187 404.83C161.518 404.964 162.644 405.387 163.583 406.087C164.526 406.79 165.229 407.703 165.694 408.839C166.123 409.971 166.274 411.239 166.131 412.654C165.989 414.068 165.589 415.281 164.943 416.305C164.26 417.325 163.386 418.101 162.315 418.638C161.257 419.135 160.07 419.324 158.741 419.19C157.372 419.052 156.25 418.629 155.353 417.939C154.41 417.2 153.726 416.269 153.296 415.138L153.296 415.138L153.291 415.127C152.828 413.992 152.66 412.725 152.802 411.312C152.944 409.9 153.361 408.691 154.042 407.672L154.042 407.672L154.048 407.662C154.694 406.641 155.545 405.885 156.608 405.385Z" stroke="#FECC00" />
  <path d="M183.605 366.911L184.088 367.037L184.215 366.554L186.233 358.852L186.36 358.368L185.876 358.242L169.682 353.998C165.27 352.842 161.608 353.188 158.781 355.157C155.986 357.104 154.036 360.317 152.884 364.714C152.283 367.008 151.996 369.347 152.023 371.728L152.523 371.722L152.023 371.728C152.05 374.112 152.413 376.256 153.121 378.152L153.273 378.56L153.698 378.466L160.222 377.018L160.816 376.886L160.571 376.329C160.058 375.161 159.758 373.825 159.681 372.315L159.681 372.315L159.681 372.307C159.579 370.753 159.72 369.248 160.102 367.789C160.667 365.633 161.539 364.267 162.648 363.566L162.648 363.567L162.655 363.562C163.67 362.897 164.875 362.68 166.309 362.959L164.726 369.001C163.962 371.918 163.704 374.422 163.983 376.497C164.226 378.547 164.895 380.227 166.023 381.496L166.023 381.496L166.029 381.504C167.156 382.723 168.615 383.559 170.383 384.022C172.09 384.469 173.759 384.429 175.377 383.895C176.996 383.359 178.425 382.361 179.665 380.922L179.665 380.922L179.671 380.915C180.881 379.457 181.776 377.583 182.37 375.315C183.039 372.761 183.113 370.5 182.545 368.556C182.313 367.761 181.98 367.033 181.547 366.371L183.605 366.911ZM172.081 364.455L174.406 365.064C175.417 365.818 176.083 366.754 176.424 367.878C176.745 369.04 176.742 370.262 176.403 371.553C176.043 372.927 175.489 373.884 174.779 374.483C174.063 375.024 173.275 375.178 172.368 374.94C171.557 374.728 170.975 374.262 170.591 373.523C170.238 372.79 170.228 371.527 170.729 369.616L172.081 364.455Z" stroke="#FECC00" />
  <path d="M168.084 324.507C168.162 325.448 168.343 326.35 168.627 327.211L166.536 326.301L166.077 326.102L165.878 326.561L162.638 334.012L162.439 334.471L162.898 334.67L189.803 346.366L190.262 346.566L190.461 346.107L193.853 338.306L194.052 337.847L193.593 337.648L180.291 331.865C178.671 331.161 177.495 330.341 176.726 329.424C175.964 328.465 175.559 327.455 175.487 326.384L175.487 326.384L175.486 326.378C175.395 325.235 175.596 324.084 176.103 322.919C176.815 321.281 177.819 320.295 179.093 319.867L179.093 319.867L179.101 319.864C180.386 319.406 182.055 319.57 184.166 320.488L198.369 326.662L198.827 326.862L199.027 326.403L202.418 318.601L202.618 318.143L202.159 317.944L186.756 311.247C183.973 310.038 181.442 309.522 179.177 309.745C176.897 309.953 174.92 310.757 173.265 312.164C171.605 313.51 170.302 315.29 169.347 317.485C168.319 319.851 167.892 322.194 168.084 324.507Z" stroke="#FECC00" />
  <path d="M224.637 281.8L225.036 282.101L225.337 281.702L230.657 274.649L230.958 274.25L230.559 273.949L206.229 255.599L213.283 246.246L213.584 245.847L213.185 245.546L207.438 241.211L207.039 240.91L206.738 241.309L186.708 267.867L186.407 268.266L186.806 268.567L192.553 272.902L192.952 273.203L193.253 272.803L200.307 263.45L224.637 281.8Z" stroke="#FECC00" />
  <path d="M247.907 252.918L247.911 252.917C250.033 252.226 251.992 251.001 253.786 249.258C255.46 247.633 256.637 245.754 257.311 243.624L257.311 243.621C257.578 242.757 257.734 241.889 257.781 241.018L259.308 242.59L259.657 242.949L260.015 242.601L265.805 236.978L266.163 236.629L265.815 236.271L245.375 215.225L245.027 214.866L244.668 215.215L238.565 221.142L238.207 221.49L238.555 221.849L248.661 232.254C249.866 233.494 250.645 234.702 251.034 235.875C251.399 237.028 251.426 238.107 251.133 239.125C250.811 240.135 250.216 241.07 249.33 241.93C248.052 243.172 246.734 243.718 245.364 243.655C243.999 243.541 242.489 242.701 240.834 240.996L230.158 230.004L229.81 229.646L229.451 229.994L223.348 235.921L222.99 236.269L223.338 236.628L234.888 248.52C237.028 250.723 239.209 252.199 241.435 252.905L241.435 252.905L241.439 252.907C243.631 253.583 245.792 253.589 247.907 252.918Z" stroke="#FECC00" />
  <path d="M275.787 228.52L276.089 228.918L276.487 228.616L283.262 223.471L283.66 223.168L283.358 222.77L258.887 190.546L258.584 190.148L258.186 190.451L251.411 195.595L251.013 195.898L251.316 196.296L275.787 228.52Z" stroke="#FECC00" />
  <path d="M293.658 215.575L293.927 215.997L294.349 215.729L301.523 211.158L301.945 210.89L301.677 210.468L279.938 176.341L279.669 175.919L279.248 176.188L272.073 180.758L271.651 181.027L271.92 181.449L293.658 215.575Z" stroke="#FECC00" />
  <path d="M317.12 200.369L317.123 200.37C320.076 200.443 323.09 199.727 326.161 198.243C328.595 197.067 330.587 195.652 332.122 193.991L332.122 193.991L332.128 193.986C333.644 192.294 334.692 190.428 335.261 188.388L335.382 187.954L334.962 187.788L328.752 185.339L328.276 185.152L328.099 185.631C327.648 186.851 327.008 187.907 326.18 188.804L326.18 188.804L326.177 188.808C325.387 189.681 324.32 190.452 322.956 191.111C321.441 191.843 320.008 192.206 318.65 192.219C317.317 192.185 316.109 191.814 315.015 191.106C314.595 190.811 314.205 190.47 313.847 190.083L333.251 180.705L333.658 180.508L333.503 180.083C333.377 179.738 333.243 179.377 333.101 179L333.1 178.997C332.939 178.579 332.784 178.214 332.634 177.904C331.227 174.992 329.389 172.77 327.108 171.267C324.824 169.74 322.323 168.938 319.612 168.867C316.923 168.748 314.249 169.336 311.598 170.617C308.847 171.947 306.658 173.751 305.046 176.032C303.421 178.278 302.478 180.781 302.223 183.533L302.223 183.533L302.223 183.535C301.984 186.25 302.532 188.973 303.847 191.695C305.149 194.388 306.96 196.501 309.284 198.016L309.287 198.018C311.593 199.498 314.208 200.28 317.12 200.369ZM323.048 179.014L311.127 184.775C310.985 184.148 310.93 183.54 310.961 182.953L310.961 182.953L310.961 182.946C311.008 181.719 311.361 180.639 312.017 179.69L312.017 179.69L312.02 179.686C312.695 178.687 313.643 177.886 314.882 177.287C316.122 176.688 317.32 176.453 318.484 176.558L318.484 176.558L318.496 176.559C319.652 176.634 320.712 177.015 321.685 177.709C322.183 178.063 322.637 178.497 323.048 179.014Z" stroke="#FECC00" />
  <path d="M351.723 156.318C351.056 156.987 350.486 157.709 350.014 158.483L349.353 156.3L349.208 155.822L348.729 155.967L340.953 158.323L340.475 158.468L340.62 158.947L349.128 187.024L349.273 187.502L349.751 187.357L357.893 184.89L358.371 184.745L358.226 184.267L354.02 170.385C353.507 168.694 353.371 167.268 353.571 166.088C353.808 164.886 354.317 163.923 355.085 163.175L355.085 163.175L355.09 163.171C355.902 162.361 356.909 161.769 358.125 161.401C359.835 160.883 361.236 161.01 362.388 161.703L362.388 161.703L362.395 161.708C363.575 162.39 364.531 163.769 365.199 165.971L369.69 180.793L369.835 181.271L370.314 181.126L378.455 178.659L378.933 178.514L378.788 178.036L373.917 161.962C373.037 159.057 371.792 156.795 370.155 155.214C368.52 153.611 366.627 152.625 364.484 152.274C362.383 151.881 360.183 152.04 357.892 152.734C355.423 153.483 353.361 154.675 351.723 156.318Z" stroke="#FECC00" />
  <path d="M414.464 163.537L414.473 163.542L414.483 163.546C415.661 164.072 416.912 164.279 418.225 164.168C419.539 164.058 420.722 163.646 421.763 162.928L421.763 162.928L421.767 162.925C422.832 162.174 423.652 161.226 424.22 160.083L424.22 160.083L424.224 160.076C424.793 158.886 425.012 157.574 424.892 156.154C424.772 154.735 424.338 153.493 423.576 152.448C422.825 151.417 421.858 150.636 420.685 150.11C419.536 149.541 418.298 149.313 416.982 149.424C415.664 149.535 414.464 149.969 413.393 150.725C412.358 151.438 411.555 152.369 410.987 153.509C410.411 154.668 410.191 155.964 410.311 157.384C410.431 158.804 410.866 160.06 411.627 161.138L411.627 161.139L411.631 161.145C412.38 162.172 413.326 162.971 414.464 163.537Z" stroke="#FECC00" />
  <path d="M464.148 171.922L464.099 172.42L464.597 172.469L473.389 173.332L473.886 173.381L473.935 172.883L477.664 134.894L477.713 134.396L477.215 134.347L460.826 132.738L460.328 132.689L460.279 133.187L459.587 140.242L459.538 140.74L460.035 140.789L467.136 141.486L464.148 171.922Z" stroke="#FECC00" />
  <path d="M493.494 175.607L493.494 175.607L493.5 175.611C495.686 177.116 498.367 178.23 501.531 178.964C504.729 179.705 507.645 179.889 510.271 179.499L510.275 179.499C512.941 179.081 515.178 178.151 516.963 176.688L516.967 176.685C518.768 175.179 519.946 173.215 520.503 170.814C521.059 168.415 520.852 166.197 519.856 164.185C519.272 162.933 518.432 161.802 517.347 160.789C518.228 160.417 519.028 159.944 519.744 159.368C521.396 158.049 522.473 156.281 522.981 154.091C523.512 151.8 523.324 149.664 522.394 147.707C521.517 145.741 520.053 144.064 518.031 142.672C516.047 141.248 513.589 140.205 510.674 139.529C507.826 138.869 505.179 138.73 502.739 139.126C500.308 139.486 498.255 140.349 496.601 141.73C494.941 143.087 493.851 144.925 493.321 147.214C492.814 149.401 492.984 151.456 493.849 153.359L493.849 153.359L493.855 153.371C494.26 154.203 494.777 154.98 495.405 155.702C493.989 156.135 492.729 156.78 491.632 157.641L491.631 157.642C489.886 159.019 488.743 160.924 488.187 163.321C487.63 165.723 487.824 168.005 488.778 170.149L488.781 170.154C489.739 172.251 491.319 174.067 493.494 175.607ZM508.34 171.446L508.34 171.446L508.334 171.449C507.005 172.057 505.315 172.153 503.222 171.668C501.167 171.192 499.709 170.366 498.782 169.234C497.87 168.119 497.581 166.826 497.935 165.302C498.288 163.777 499.11 162.765 500.406 162.2L500.406 162.2L500.414 162.196C501.744 161.588 503.417 161.488 505.472 161.965C507.565 162.45 509.04 163.28 509.965 164.411L509.97 164.417L509.976 164.423C510.924 165.51 511.231 166.784 510.878 168.303C510.526 169.822 509.685 170.852 508.34 171.446ZM511.278 154.889L511.278 154.889L511.271 154.893C510.19 155.405 508.802 155.497 507.065 155.094C505.366 154.7 504.177 154.013 503.43 153.075C502.695 152.152 502.464 151.077 502.761 149.795C503.075 148.44 503.783 147.55 504.875 147.054C506.002 146.542 507.36 146.449 508.982 146.825C510.642 147.21 511.837 147.897 512.623 148.85L512.623 148.85L512.628 148.856C513.424 149.793 513.681 150.905 513.368 152.254C513.072 153.53 512.379 154.389 511.278 154.889Z" stroke="#FECC00" />
  <path d="M548.385 177.458C549.847 177.535 551.242 177.387 552.568 177.01C551.245 179.548 549.587 181.216 547.617 182.079L547.613 182.081C545.226 183.154 542.585 183.13 539.65 181.953C538.468 181.478 537.385 180.91 536.398 180.25C535.447 179.571 534.635 178.725 533.962 177.709L533.645 177.23L533.214 177.61L527.761 182.413L527.424 182.71L527.683 183.077C528.645 184.442 529.93 185.684 531.526 186.807C533.118 187.925 534.859 188.864 536.749 189.622C540.39 191.083 543.911 191.618 547.302 191.205C550.696 190.791 553.761 189.437 556.486 187.154C559.255 184.877 561.461 181.654 563.123 177.515C564.685 173.621 565.354 170.079 565.093 166.902C564.846 163.697 563.782 160.897 561.897 158.516C560.012 156.138 557.389 154.286 554.052 152.947C551.526 151.933 548.996 151.501 546.466 151.658C543.979 151.795 541.732 152.521 539.736 153.839L539.736 153.839L539.731 153.842C537.752 155.187 536.264 157.127 535.258 159.635C534.333 161.94 534.078 164.195 534.516 166.388L534.516 166.388L534.517 166.395C534.985 168.582 535.979 170.53 537.491 172.236L537.494 172.238C539.04 173.956 540.98 175.279 543.305 176.212C545.065 176.918 546.755 177.336 548.374 177.457L548.374 177.457L548.385 177.458ZM548.588 159.656L548.596 159.656L548.604 159.655C549.565 159.576 550.604 159.751 551.728 160.202C552.99 160.708 553.934 161.35 554.591 162.113L554.596 162.118L554.601 162.124C555.274 162.86 555.667 163.672 555.799 164.565L555.801 164.577L555.803 164.589C555.977 165.464 555.886 166.362 555.512 167.292C555.139 168.223 554.576 168.955 553.825 169.503C553.077 170.049 552.186 170.371 551.135 170.458C550.136 170.525 549.078 170.341 547.957 169.891C546.22 169.194 545.049 168.205 544.382 166.945C543.768 165.678 543.742 164.313 544.345 162.811C544.748 161.806 545.318 161.064 546.044 160.555L546.044 160.555L546.052 160.55C546.803 160.001 547.645 159.704 548.588 159.656Z" stroke="#FECC00" />
  <path d="M563.695 199.901L563.443 200.333L563.874 200.585L588.78 215.142L589.211 215.394L589.464 214.962L593.096 208.748L593.348 208.316L592.916 208.064L579.816 200.407L590.367 197.974C592.767 197.425 594.727 196.792 596.236 196.068C597.766 195.367 598.996 194.55 599.907 193.606C600.841 192.676 601.631 191.658 602.277 190.554C603.496 188.469 604.019 186.337 603.817 184.172C603.647 182.037 602.83 180.003 601.392 178.073C599.999 176.126 598.047 174.428 595.553 172.97C592.548 171.214 589.55 170.212 586.56 169.983C583.58 169.755 580.861 170.23 578.416 171.423L577.959 171.646L578.189 172.099L581.653 178.924L581.868 179.347L582.301 179.155C583.706 178.534 585.093 178.298 586.472 178.433C587.902 178.589 589.277 179.05 590.6 179.824C592.276 180.803 593.257 181.849 593.658 182.932L593.661 182.941L593.665 182.95C594.102 184.005 594.005 185.111 593.299 186.317C593.037 186.766 592.658 187.222 592.15 187.682L592.141 187.69L592.132 187.699C591.676 188.154 591.027 188.601 590.164 189.032C589.325 189.452 588.157 189.826 586.642 190.145L586.641 190.145L586.631 190.147L566.903 194.723L566.693 194.772L566.584 194.958L563.695 199.901Z" stroke="#FECC00" />
  <path d="M623.331 230.126L623.334 230.136L623.337 230.146C623.763 231.365 624.471 232.416 625.453 233.296C626.435 234.175 627.546 234.753 628.782 235.018L628.782 235.018L628.788 235.019C630.064 235.278 631.317 235.224 632.538 234.853L632.538 234.853L632.545 234.851C633.802 234.448 634.906 233.707 635.857 232.645C636.807 231.584 637.412 230.417 637.65 229.145C637.884 227.891 637.789 226.652 637.366 225.437C636.992 224.211 636.308 223.154 635.324 222.273C634.339 221.391 633.2 220.816 631.915 220.555C630.686 220.292 629.458 220.346 628.239 220.716C627.001 221.092 625.907 221.822 624.957 222.883C624.006 223.944 623.391 225.123 623.128 226.417L623.128 226.417L623.127 226.424C622.893 227.674 622.962 228.91 623.331 230.126Z" stroke="#FECC00" />
</svg>