<svg width="186" height="189" viewBox="0 0 186 189" fill="none" xmlns="http://www.w3.org/2000/svg">
<g opacity="0.33">
<path d="M80.2901 172.749L80.2921 172.75C81.0269 173.212 81.6405 173.783 82.1275 174.463L82.1303 174.467L82.1303 174.467C82.6054 175.144 82.9349 175.893 83.1185 176.712L83.1199 176.718L83.1199 176.718C83.294 177.544 83.2911 178.4 83.1182 179.283C82.9454 180.166 82.625 180.96 82.1525 181.659L82.1489 181.664L82.1488 181.664C81.6686 182.355 81.0738 182.925 80.3667 183.371C79.6594 183.817 78.8758 184.114 78.021 184.265L77.9341 183.773L78.021 184.265C77.7113 184.32 77.3974 184.352 77.0797 184.364C77.4619 184.459 77.7823 184.67 78.0212 184.989L78.0285 184.999L78.0284 184.999C78.2897 185.367 78.3598 185.795 78.273 186.238C78.1862 186.681 77.96 187.051 77.5792 187.293L77.5689 187.3L77.5689 187.299C77.1991 187.522 76.7891 187.591 76.3647 187.508C75.9401 187.424 75.5867 187.206 75.3367 186.854C75.0753 186.486 75.0052 186.058 75.092 185.615C75.1788 185.172 75.4051 184.802 75.7858 184.56C75.9464 184.458 76.1157 184.387 76.2912 184.348C75.9805 184.324 75.6664 184.282 75.349 184.22C75.0315 184.157 74.7253 184.079 74.4305 183.984C74.577 184.087 74.7064 184.216 74.816 184.37C75.0773 184.738 75.1474 185.166 75.0606 185.609C74.9738 186.052 74.7476 186.422 74.3668 186.664M80.2901 172.749L74.3668 186.664M80.2901 172.749C79.5407 172.282 78.6984 171.96 77.7687 171.778C76.8494 171.598 75.9623 171.582 75.1115 171.736C74.2585 171.887 73.4814 172.179 72.7859 172.617L72.7857 172.617C72.0786 173.063 71.4838 173.633 71.0036 174.324L71.002 174.326C70.5164 175.033 70.1886 175.832 70.0152 176.718C69.8402 177.612 69.8423 178.472 70.0311 179.293C70.2151 180.113 70.5505 180.864 71.0362 181.542C71.5131 182.221 72.1218 182.791 72.8561 183.253C73.1195 183.421 73.3961 183.569 73.6858 183.699C73.2997 183.646 72.9281 183.72 72.5944 183.931C72.2034 184.168 71.9676 184.537 71.8796 184.986C71.7917 185.435 71.8711 185.866 72.1436 186.233M80.2901 172.749L72.1436 186.233M74.3668 186.664C74.0025 186.896 73.5928 186.965 73.1682 186.882C72.7455 186.799 72.3935 186.582 72.1436 186.233M74.3668 186.664L72.1436 186.233M75.9434 174.934L75.9434 174.934L75.9477 174.933C76.3214 174.859 76.7254 174.86 77.1647 174.946C77.6039 175.032 77.9857 175.184 78.3165 175.398C78.6483 175.613 78.9201 175.879 79.1359 176.199C79.3412 176.516 79.4866 176.876 79.5696 177.281C79.6391 177.69 79.6317 178.123 79.5416 178.583C79.4491 179.056 79.2923 179.458 79.0778 179.797C78.8489 180.14 78.5745 180.417 78.2544 180.632C77.9311 180.85 77.5821 180.995 77.2038 181.071C76.8173 181.143 76.407 181.14 75.9687 181.054C75.5296 180.968 75.1478 180.816 74.8169 180.602C74.4853 180.388 74.22 180.124 74.0157 179.809L74.0158 179.809L74.011 179.802C73.7966 179.483 73.6525 179.126 73.5802 178.726L73.5804 178.726L73.5783 178.715C73.4982 178.32 73.4996 177.889 73.5918 177.418C73.6841 176.947 73.8453 176.547 74.0686 176.211L74.0687 176.211L74.0743 176.202C74.2922 175.859 74.5602 175.583 74.8791 175.368C75.2005 175.152 75.5538 175.007 75.9434 174.934Z" stroke="#006AA7"/>
<path d="M68.8859 170.245L69.0478 169.772L68.5748 169.61L66.1948 168.796L65.7218 168.634L65.5599 169.107L61.6846 180.427L61.5227 180.9L61.9957 181.062L64.3757 181.876L64.8487 182.038L65.0106 181.565L68.8859 170.245Z" stroke="#006AA7"/>
<path d="M61.8759 167.292L61.8759 167.292C62.4372 167.765 62.873 168.237 63.1583 168.713L63.3775 169.078L63.0518 169.352L61.529 170.635L61.0971 170.999L60.7883 170.526C60.5614 170.179 60.2562 169.83 59.8659 169.482C59.4653 169.143 59.0487 168.874 58.6165 168.673C58.0996 168.432 57.8064 168.377 57.677 168.389L57.6674 168.39L57.6674 168.39C57.5883 168.397 57.5523 168.414 57.5388 168.423C57.5289 168.429 57.5161 168.439 57.5015 168.47C57.5039 168.473 57.507 168.477 57.5109 168.482L57.5215 168.496L57.5311 168.51C57.6047 168.616 57.7423 168.754 57.9747 168.915C58.2299 169.092 58.515 169.283 58.8301 169.489L58.8318 169.49C59.1518 169.701 59.4692 169.928 59.7838 170.173L59.7945 170.181L59.7943 170.181C60.1278 170.455 60.413 170.761 60.6468 171.099L60.2523 171.372L60.6468 171.099C60.8991 171.464 61.0523 171.873 61.1056 172.316L61.1071 172.329L61.1069 172.329C61.1518 172.804 61.0332 173.299 60.8001 173.799C60.5256 174.388 60.1069 174.844 59.5479 175.146L59.5407 175.15L59.5407 175.15C58.9756 175.443 58.3252 175.555 57.6108 175.511C56.8809 175.477 56.1128 175.262 55.3113 174.889C54.7422 174.624 54.1942 174.293 53.6671 173.898C53.1344 173.498 52.7068 173.073 52.4015 172.617L52.1512 172.244L52.496 171.956L54.012 170.687L54.4336 170.334L54.7449 170.788C54.9923 171.148 55.2687 171.436 55.5724 171.659L55.5783 171.663L55.5841 171.668C55.8958 171.911 56.2136 172.107 56.5372 172.258C57.0226 172.484 57.3247 172.541 57.4862 172.526C57.58 172.517 57.6257 172.497 57.6443 172.485C57.6578 172.477 57.6659 172.469 57.6749 172.45C57.6827 172.433 57.6853 172.423 57.6862 172.418C57.6864 172.418 57.6865 172.417 57.6866 172.416L61.8759 167.292ZM61.8759 167.292L61.8687 167.286M61.8759 167.292L61.8687 167.286M61.8687 167.286C61.2845 166.813 60.6377 166.412 59.93 166.082C59.103 165.697 58.324 165.47 57.5989 165.425C56.8779 165.377 56.2243 165.479 55.6614 165.762L55.6614 165.762M61.8687 167.286L55.6614 165.762M55.6614 165.762L55.6558 165.765M55.6614 165.762L55.6558 165.765M55.6558 165.765C55.0869 166.061 54.6613 166.509 54.3886 167.094C54.1548 167.596 54.0409 168.095 54.105 168.573C54.1587 169.015 54.3139 169.418 54.5715 169.774C54.7962 170.108 55.0765 170.41 55.408 170.683C55.7233 170.942 56.0512 171.176 56.3917 171.385C56.6909 171.582 56.9626 171.772 57.2073 171.954C57.4346 172.123 57.5841 172.271 57.6749 172.394L55.6558 165.765Z" stroke="#006AA7"/>
<path d="M52.2394 163.075L52.2394 163.075L52.238 163.07C51.9815 162.177 51.3387 161.449 50.4007 160.867C50.0401 160.644 49.6664 160.467 49.2796 160.34L49.2797 160.34L49.2697 160.337C48.8618 160.213 48.4629 160.156 48.0773 160.18L47.6903 160.204L47.6169 160.584L47.2576 162.449L47.1305 163.108L47.7988 163.041C48.026 163.018 48.2614 163.07 48.5184 163.229C48.7111 163.349 48.7848 163.467 48.812 163.575C48.834 163.691 48.815 163.852 48.6717 164.083L47.074 166.66L45.6627 165.784L45.2377 165.521L44.9742 165.946L43.9544 167.59L43.6908 168.015L44.1158 168.279L45.5271 169.154L44.6773 170.524L44.4138 170.949L44.8387 171.213L46.9765 172.538L47.4014 172.802L47.665 172.377L48.5148 171.007L49.2272 171.449L49.6522 171.712L49.9157 171.287L50.9355 169.643L51.199 169.218L50.7741 168.954L50.0616 168.512L51.6763 165.909C52.2683 164.954 52.4942 163.997 52.2394 163.075Z" stroke="#006AA7"/>
<path d="M44.8239 157.591L44.8223 157.588C44.525 156.932 44.0652 156.354 43.4585 155.854C42.8837 155.38 42.24 155.069 41.532 154.929L41.532 154.929L41.5287 154.928C41.4853 154.92 41.442 154.912 41.3987 154.905L41.6844 154.559L41.2986 154.241L39.4572 152.723L39.0714 152.405L38.7533 152.79L33.235 159.484L32.917 159.87L33.3028 160.188L35.2438 161.788L35.6296 162.106L35.9476 161.721L38.676 158.411C38.9774 158.045 39.2661 157.817 39.536 157.693C39.8039 157.574 40.0477 157.544 40.2788 157.582C40.5203 157.632 40.7609 157.748 41.0023 157.946C41.3492 158.232 41.4904 158.516 41.5106 158.8C41.516 159.082 41.3765 159.47 40.9573 159.978L38.0751 163.474L37.757 163.86L38.1428 164.178L40.0838 165.778L40.4696 166.096L40.7877 165.711L43.9058 161.928C44.5081 161.198 44.9052 160.457 45.0548 159.706L45.0548 159.706L45.0555 159.702C45.1957 158.968 45.1204 158.26 44.8239 157.591Z" stroke="#006AA7"/>
<path d="M25.3765 151.842L25.7485 151.517C25.7615 151.593 25.7772 151.668 25.7955 151.743C25.9586 152.453 26.3137 153.109 26.8404 153.711C27.4198 154.373 28.0962 154.86 28.8689 155.159L28.8689 155.159L28.8721 155.16C29.6394 155.45 30.4393 155.529 31.2626 155.397L31.2626 155.397L31.2648 155.396C32.0945 155.26 32.8595 154.872 33.5575 154.261C34.2486 153.656 34.7321 152.95 34.9854 152.143L34.9855 152.143L34.9883 152.133C35.219 151.343 35.2468 150.544 35.0709 149.743L35.071 149.743L35.0687 149.733C34.8752 148.928 34.4823 148.193 33.9029 147.53C33.3773 146.93 32.7755 146.492 32.0955 146.236C32.3846 146.087 32.6469 146.036 32.8859 146.056L32.8859 146.056L32.8925 146.056C33.2618 146.081 33.7231 146.321 34.2728 146.95C34.5967 147.32 34.8693 147.756 35.0883 148.261L35.0883 148.262L35.0907 148.267C35.3088 148.755 35.4149 149.194 35.4267 149.589L35.4448 150.19L36.0324 150.062L38.0498 149.625L38.4654 149.535L38.4433 149.111C38.4057 148.387 38.1906 147.652 37.8165 146.91C37.4478 146.161 36.98 145.464 36.4147 144.818C35.3308 143.579 34.1457 142.833 32.8548 142.686C31.5375 142.536 30.2324 143.093 28.9588 144.207L23.5225 148.965L23.1463 149.294L23.4756 149.67L25.0472 151.466L25.3765 151.842ZM28.3749 149.638L28.375 149.638L28.3772 149.631C28.4527 149.383 28.6087 149.142 28.8744 148.91C29.1297 148.686 29.3913 148.56 29.6623 148.511C29.9378 148.462 30.211 148.486 30.4913 148.592C30.7635 148.705 31.023 148.892 31.2679 149.172C31.5129 149.452 31.6645 149.734 31.7399 150.019C31.8075 150.311 31.7996 150.592 31.7187 150.869C31.6339 151.129 31.4746 151.37 31.2211 151.591C30.9562 151.823 30.6974 151.946 30.4428 151.988C30.157 152.032 29.8832 152 29.6115 151.889L29.6115 151.889L29.6 151.884C29.3219 151.779 29.0605 151.595 28.8169 151.317C28.5734 151.039 28.4265 150.755 28.3585 150.466L28.3587 150.466L28.3555 150.454C28.2819 150.171 28.2895 149.903 28.3749 149.638Z" stroke="#006AA7"/>
<path d="M25.4779 136.176C25.4721 136.173 25.4663 136.17 25.4604 136.167L25.7884 135.96L25.5215 135.537L24.2651 133.546L23.9983 133.123L23.5754 133.39L19.3889 136.032C18.1957 136.785 17.4429 137.724 17.2778 138.868C17.1182 139.975 17.4572 141.129 18.2025 142.31C18.5936 142.93 19.0612 143.488 19.6042 143.985L19.9086 143.651L19.6042 143.985C20.1491 144.482 20.7193 144.861 21.3162 145.11L21.7178 145.277L21.9388 144.902L22.9433 143.2L23.2529 142.676L22.6782 142.474C22.3686 142.366 22.0562 142.185 21.7419 141.919L21.7419 141.919L21.7362 141.915C21.4083 141.646 21.1371 141.34 20.9199 140.996C20.591 140.475 20.5209 140.104 20.5698 139.847L20.5698 139.847L20.5712 139.839C20.5969 139.691 20.6558 139.549 20.7606 139.415L21.5197 140.617C22.0086 141.392 22.5258 141.994 23.0806 142.389C23.6144 142.781 24.1797 143.009 24.77 143.024L24.77 143.024L24.7797 143.024C25.3458 143.028 25.886 142.858 26.3928 142.538C26.889 142.225 27.2643 141.805 27.5053 141.283C27.7469 140.76 27.8257 140.184 27.7592 139.571L27.7592 139.571L27.7581 139.562C27.6795 138.943 27.4322 138.323 27.0419 137.705C26.6027 137.009 26.0862 136.483 25.4779 136.176ZM22.8061 138.033L23.0485 137.88C23.3178 137.842 23.5561 137.882 23.7774 137.989C24.0316 138.124 24.249 138.325 24.4287 138.61C24.6254 138.922 24.6867 139.16 24.6804 139.337C24.6626 139.486 24.5987 139.59 24.4556 139.68C24.3316 139.758 24.2176 139.775 24.0793 139.738C23.9762 139.703 23.7608 139.545 23.4601 139.069L22.8061 138.033Z" stroke="#006AA7"/>
<path d="M12.8021 131.101L12.3589 131.294L12.5578 131.752L13.5136 133.957L13.7125 134.415L14.1713 134.216L22.1306 130.765L22.5893 130.566L22.3904 130.108L21.3897 127.8L21.1908 127.341L20.732 127.54L16.7968 129.246C16.3514 129.439 15.9943 129.509 15.7132 129.495C15.4176 129.471 15.1889 129.377 15.0056 129.228L15.0056 129.228L15.0007 129.224C14.7844 129.052 14.6103 128.824 14.4817 128.528C14.3008 128.111 14.3099 127.801 14.4235 127.551L14.4236 127.551L14.4271 127.543C14.5372 127.29 14.8169 127.012 15.4016 126.758L19.6031 124.936L20.0619 124.738L19.863 124.279L18.8622 121.971L18.6633 121.512L18.2046 121.711L13.648 123.687C12.7899 124.059 12.1111 124.533 11.6546 125.129C11.1988 125.715 10.9452 126.372 10.9106 127.089C10.8628 127.782 10.9972 128.477 11.2976 129.17C11.6214 129.917 12.0749 130.531 12.6644 130.997C12.7098 131.033 12.7557 131.068 12.8021 131.101Z" stroke="#006AA7"/>
<path d="M15.1307 110.224L15.6232 110.138L15.5371 109.645L15.0874 107.072L15.0013 106.579L14.5088 106.665L5.97903 108.156L5.44329 105.09L5.35721 104.598L4.86468 104.684L2.76794 105.05L2.27541 105.137L2.36148 105.629L4.05483 115.318L4.1409 115.811L4.63344 115.725L6.73017 115.359L7.22271 115.272L7.13663 114.78L6.60089 111.714L15.1307 110.224Z" stroke="#006AA7"/>
<path d="M13.8512 99.1735L13.8528 99.1701C14.1577 98.5171 14.2967 97.7923 14.2816 97.0062C14.2673 96.2614 14.0849 95.57 13.7306 94.9411L13.7306 94.9411L13.7289 94.9382C13.707 94.8999 13.6844 94.8621 13.6613 94.8249L14.1105 94.8162L14.1009 94.3163L14.0551 91.9302L14.0455 91.4303L13.5455 91.4399L4.87186 91.6066L4.37195 91.6162L4.38155 92.1161L4.42988 94.6312L4.43949 95.1311L4.93939 95.1215L9.22787 95.0391C9.70158 95.03 10.063 95.1005 10.333 95.2245C10.5972 95.3508 10.7787 95.5164 10.9 95.7168C11.0195 95.9325 11.0885 96.1902 11.0945 96.503C11.1031 96.9525 10.9799 97.2441 10.7772 97.4444C10.5665 97.6323 10.1816 97.7784 9.52267 97.7911L4.99236 97.8781L4.49245 97.8877L4.50206 98.3876L4.55039 100.903L4.55999 101.403L5.0599 101.393L9.96102 101.299C10.9077 101.281 11.7288 101.1 12.3961 100.725L12.3961 100.725L12.3995 100.723C13.0479 100.352 13.5368 99.8335 13.8512 99.1735Z" stroke="#006AA7"/>
<path d="M13.8515 88.417L14.3489 88.468L14.3999 87.9706L14.6563 85.4682L14.7072 84.9708L14.2098 84.9198L2.30734 83.7004L1.80994 83.6494L1.75898 84.1468L1.5026 86.6492L1.45164 87.1466L1.94904 87.1976L13.8515 88.417Z" stroke="#006AA7"/>
<path d="M14.6385 81.9453L15.13 82.0369L15.2217 81.5454L15.683 79.0726L15.7747 78.581L15.2832 78.4894L3.52121 76.2954L3.02969 76.2037L2.93801 76.6952L2.47674 79.1681L2.38506 79.6596L2.87658 79.7513L14.6385 81.9453Z" stroke="#006AA7"/>
<path d="M16.403 73.7047L16.405 73.7026C17.0624 73.0333 17.5423 72.186 17.8555 71.1784C18.1032 70.3817 18.208 69.6211 18.1555 68.9019L18.1555 68.9019L18.1548 68.8942C18.0912 68.1758 17.8843 67.5197 17.5281 66.935L17.2936 66.5501L16.8865 66.7436L15.1033 67.5908L15.0247 67.6282L15.4979 66.1058L15.6322 65.6737L15.2156 65.4971C15.1147 65.4542 15.0087 65.4099 14.8977 65.364L14.8942 65.3626C14.7654 65.3104 14.6457 65.2666 14.5365 65.2327C13.5756 64.934 12.6593 64.8736 11.8011 65.0802C10.9479 65.28 10.2112 65.6904 9.6019 66.3083C8.98837 66.9098 8.54785 67.6576 8.27424 68.5377C7.99039 69.4509 7.93187 70.348 8.11221 71.2206C8.28143 72.086 8.66018 72.8518 9.2447 73.5093L9.2447 73.5093L9.24627 73.5111C9.83202 74.1638 10.5879 74.6269 11.4948 74.9088C12.3951 75.1887 13.2826 75.2289 14.1466 75.0162L14.1466 75.0163L14.15 75.0154C15.0017 74.7993 15.754 74.3577 16.403 73.7047ZM13.7708 71.6617L14.8433 68.2115L14.871 68.2667C15.0241 68.5717 15.1096 68.8786 15.1326 69.1899L15.1326 69.1899L15.133 69.1952C15.1578 69.4873 15.1176 69.8273 14.995 70.2217C14.8604 70.6546 14.6736 70.9876 14.4459 71.2378C14.2478 71.4379 14.0243 71.5775 13.7708 71.6617ZM12.2493 68.2399C12.2497 68.2398 12.2502 68.2397 12.2507 68.2396L11.3883 71.0141C11.1817 70.8033 11.0562 70.5702 10.9994 70.3088L10.9994 70.3088L10.9982 70.3036C10.9342 70.0236 10.9464 69.7204 11.0509 69.384C11.1556 69.0473 11.3151 68.7987 11.5188 68.6168L11.5189 68.6169L11.5279 68.6084C11.7287 68.4199 11.9654 68.2976 12.2493 68.2399Z" stroke="#006AA7"/>
<path d="M13.2817 57.2718L12.8483 57.0585L12.6275 57.5071L11.5665 59.6628L11.3458 60.1114L11.7944 60.3322L19.578 64.1631L20.0266 64.3838L20.2474 63.9352L21.3582 61.6783L21.579 61.2296L21.1304 61.0089L17.282 59.1148C16.8465 58.9005 16.5618 58.6737 16.3905 58.4504C16.2178 58.2093 16.1409 57.9745 16.1362 57.7379L16.1363 57.7379L16.136 57.7316C16.127 57.4554 16.1878 57.1753 16.3305 56.8854C16.5313 56.4773 16.7731 56.2839 17.0369 56.2088L17.0369 56.2089L17.0453 56.2064C17.3099 56.126 17.7029 56.1591 18.2747 56.4405L22.3835 58.4627L22.8321 58.6835L23.0529 58.2349L24.1637 55.9779L24.3845 55.5293L23.9359 55.3085L19.4798 53.1154C18.6407 52.7024 17.84 52.4919 17.0902 52.53C16.348 52.5626 15.6835 52.7945 15.1148 53.2321C14.5559 53.6443 14.1127 54.1973 13.7792 54.8749C13.4199 55.6051 13.2452 56.3485 13.2719 57.0995C13.2739 57.1573 13.2772 57.2148 13.2817 57.2718Z" stroke="#006AA7"/>
<path d="M27.9746 45.3213L27.9843 45.3176L27.9938 45.3136C28.4019 45.1415 28.7466 44.8758 29.0237 44.5243C29.3007 44.1727 29.4769 43.7774 29.5417 43.3438L29.5417 43.3438L29.5425 43.3383C29.603 42.9004 29.5579 42.4727 29.4048 42.0631L29.4049 42.0631L29.4021 42.0559C29.2347 41.6284 28.9548 41.2669 28.5798 40.9714C28.2051 40.676 27.7899 40.4895 27.3382 40.4342C26.9044 40.3811 26.481 40.4404 26.0762 40.6092C25.6616 40.7662 25.3127 41.0266 25.0342 41.3799C24.7542 41.7352 24.5805 42.1398 24.5184 42.5858C24.4551 43.013 24.5009 43.434 24.6531 43.8411L25.1214 43.666L24.6531 43.8411C24.8124 44.2674 25.0907 44.6275 25.4654 44.9228C25.8404 45.2184 26.2573 45.4061 26.712 45.4689L26.712 45.469L26.7197 45.4699C27.1489 45.5225 27.5695 45.4727 27.9746 45.3213Z" stroke="#006AA7"/>
<path d="M39.4288 36.1805L39.759 36.556L40.1345 36.2258L42.0961 34.5007L42.4715 34.1705L42.1413 33.795L34.687 25.319L34.3568 24.9436L33.9814 25.2738L30.3246 28.4898L29.9491 28.82L30.2793 29.1954L31.6637 30.7695L31.9939 31.145L32.3694 30.8148L33.6891 29.6541L39.4288 36.1805Z" stroke="#006AA7"/>
<path d="M46.4842 30.6966L46.4842 30.6966L46.4906 30.6952C47.3095 30.5154 48.1321 30.1398 48.9574 29.5856C49.791 29.0258 50.4547 28.4035 50.9314 27.713L50.9314 27.713L50.9336 27.7098C51.41 27.0078 51.6874 26.2773 51.7368 25.5227L51.7368 25.5227L51.7371 25.5177C51.78 24.7435 51.5698 24.0173 51.1234 23.3526C50.6784 22.69 50.0946 22.232 49.3735 22.0143C49.0902 21.9224 48.7973 21.869 48.4959 21.852C48.5253 21.7122 48.5455 21.5712 48.5561 21.4289C48.6111 20.7206 48.422 20.0531 48.0109 19.4409C47.5843 18.8058 47.0239 18.362 46.3316 18.1407C45.6612 17.9106 44.939 17.89 44.1797 18.0563C43.4175 18.2089 42.6543 18.5511 41.8913 19.0635C41.1439 19.5654 40.5443 20.1394 40.1073 20.7905C39.6648 21.4319 39.4102 22.1097 39.3702 22.819C39.3229 23.5375 39.5267 24.2197 39.9519 24.8529C40.3611 25.4622 40.9002 25.8925 41.5661 26.1168L41.5661 26.1169L41.5785 26.1208C41.7145 26.1627 41.8527 26.1958 41.9927 26.2204C41.894 26.5061 41.8308 26.7981 41.8051 27.0962L41.805 27.0976C41.7427 27.8425 41.9508 28.5525 42.3951 29.2141C42.8415 29.8788 43.4342 30.3482 44.1671 30.6014L44.1671 30.6014L44.1718 30.603C44.887 30.8422 45.6624 30.8658 46.4842 30.6966ZM48.1792 26.1882L48.1792 26.1882L48.177 26.1946C48.0727 26.5071 47.8171 26.8354 47.3301 27.1624C46.8539 27.4822 46.4576 27.5929 46.1273 27.5711C45.8187 27.5508 45.5773 27.4155 45.3757 27.1153C45.1743 26.8153 45.1451 26.5489 45.2442 26.2692L45.2443 26.2692L45.2472 26.2606C45.3521 25.9466 45.6045 25.6216 46.0807 25.3018C46.5676 24.9748 46.9682 24.8625 47.2969 24.8841L47.3048 24.8846L47.3127 24.8849C47.6187 24.8953 47.8545 25.0222 48.0529 25.3175C48.2514 25.6131 48.2842 25.8876 48.1792 26.1882ZM45.1944 22.214L45.1944 22.2139L45.1919 22.2218C45.1161 22.4591 44.9218 22.7195 44.5253 22.9858C44.14 23.2445 43.8297 23.3246 43.5793 23.3047C43.3483 23.2864 43.1628 23.1837 43.0003 22.9417C42.8242 22.6796 42.802 22.4604 42.8762 22.2405C42.9624 21.9849 43.1566 21.7298 43.5186 21.4867C43.8918 21.2361 44.2057 21.1515 44.4728 21.1683L44.4728 21.1683L44.4807 21.1687C44.7216 21.18 44.9159 21.2826 45.0884 21.5395C45.2473 21.7761 45.2714 21.9859 45.1944 22.214Z" stroke="#006AA7"/>
<path d="M58.1434 19.1227C58.2722 18.9986 58.3918 18.8691 58.5018 18.7342C58.561 19.1557 58.5249 19.5257 58.4103 19.8511L58.4103 19.8511L58.4088 19.8555C58.195 20.4811 57.7343 20.9812 56.9572 21.3448C56.6386 21.4938 56.322 21.6045 56.0073 21.6782C55.7139 21.7368 55.4123 21.741 55.0993 21.6885L54.5337 21.5936L54.5168 22.1669L54.4536 24.3149L54.4404 24.7633L54.8847 24.8249C55.4208 24.8993 55.9899 24.8686 56.5872 24.7435C57.178 24.6198 57.758 24.4241 58.3267 24.158C59.4228 23.6453 60.2991 22.9574 60.9348 22.0863C61.5725 21.2124 61.9203 20.2114 61.9811 19.0973C62.0524 17.9675 61.7832 16.7813 61.206 15.5475C60.6648 14.3906 60.005 13.4814 59.2113 12.8528C58.4183 12.2186 57.533 11.8539 56.5637 11.7747C55.5971 11.6957 54.6059 11.9058 53.5986 12.377C52.8266 12.7382 52.1795 13.2282 51.6668 13.8496C51.1567 14.4599 50.8321 15.1486 50.703 15.9099L50.7029 15.9099L50.7019 15.9164C50.5805 16.6945 50.7154 17.4783 51.0791 18.2556C51.4155 18.9747 51.8943 19.541 52.5218 19.9298L52.5218 19.9299L52.5279 19.9335C53.148 20.3057 53.8292 20.5011 54.5622 20.5202L54.5622 20.5202L54.5658 20.5203C55.3077 20.5342 56.0385 20.3685 56.7535 20.034C57.2881 19.7839 57.7514 19.4841 58.1353 19.1303L58.1354 19.1304L58.1434 19.1227ZM56.431 14.9675C56.5013 15.0111 56.5661 15.0636 56.625 15.1267L56.5974 15.1174L56.8344 15.4511C56.9248 15.6546 56.9532 15.8498 56.9294 16.0451C56.9051 16.2453 56.8241 16.4424 56.6676 16.641C56.5189 16.8222 56.3114 16.9827 56.0287 17.1149C55.5866 17.3218 55.2246 17.3544 54.9179 17.273C54.6287 17.1818 54.4028 16.9877 54.238 16.6354C54.1263 16.3969 54.0978 16.1927 54.1234 16.0114L54.1235 16.0115L54.1247 16.0019C54.1495 15.7977 54.2268 15.6198 54.3634 15.458L54.3684 15.452L54.3732 15.4459C54.5102 15.2729 54.7105 15.1149 54.9952 14.9818C55.3223 14.8287 55.5953 14.7727 55.8226 14.782L55.83 14.7823L55.8374 14.7823C56.068 14.7849 56.2531 14.8452 56.4102 14.9538L56.4204 14.9609L56.431 14.9675Z" stroke="#006AA7"/>
<path d="M65.503 20.1954L65.6461 20.6745L66.1252 20.5314L74.2985 18.0899L74.7776 17.9468L74.6345 17.4677L74.0253 15.4282L73.8822 14.9492L73.4031 15.0923L69.9542 16.1225L71.1139 14.1204C71.1139 14.1202 71.114 14.1201 71.1141 14.12C71.4864 13.4797 71.7586 12.9044 71.9176 12.3991C72.0836 11.9008 72.166 11.427 72.1437 10.9858C72.1302 10.568 72.0654 10.1628 71.9485 9.77137C71.7261 9.02683 71.3337 8.41815 70.7606 7.97392C70.2073 7.53407 69.5396 7.27912 68.7784 7.19384C68.0186 7.09449 67.2079 7.18198 66.3538 7.4371C65.3256 7.74424 64.4541 8.21332 63.7555 8.85477L64.0936 9.22308L63.7555 8.85477C63.0635 9.49015 62.5799 10.2259 62.3236 11.0611L62.1746 11.5467L62.6625 11.688L64.8365 12.3177L65.2918 12.4496L65.4477 12.0019C65.5787 11.6259 65.7752 11.3317 66.0325 11.105C66.3149 10.8623 66.6471 10.6819 67.0359 10.5658C67.5465 10.4133 67.8784 10.4321 68.0878 10.52L68.0968 10.5238L68.1058 10.5271C68.3019 10.6007 68.4534 10.7481 68.5457 11.0571C68.5772 11.1626 68.5964 11.2996 68.5937 11.4746L68.5935 11.4868L68.5939 11.4989C68.5985 11.6399 68.5731 11.8313 68.499 12.0818C68.4323 12.3073 68.2938 12.6062 68.0645 12.9851L68.0644 12.985L68.0593 12.994L65.0645 18.1799L64.9568 18.3666L65.0184 18.5731L65.503 20.1954Z" stroke="#006AA7"/>
<path d="M84.2534 13.6285L84.2627 13.6331L84.2722 13.6373C84.6774 13.816 85.1072 13.8844 85.5531 13.8447C85.9989 13.805 86.4073 13.6619 86.7672 13.4114L86.7673 13.4115L86.7718 13.4083C87.1318 13.1518 87.4119 12.8255 87.6048 12.433L87.6049 12.4331L87.6082 12.4261C87.8043 12.011 87.8751 11.5593 87.8328 11.0837C87.7905 10.6085 87.6412 10.1785 87.3714 9.81204C87.1124 9.46005 86.7787 9.1927 86.3782 9.0142C85.9795 8.82031 85.5506 8.7452 85.1025 8.7851C84.6519 8.82523 84.2384 8.97656 83.8714 9.23746C83.5172 9.48449 83.2424 9.80677 83.0507 10.1968L83.4874 10.4114L83.0507 10.1968C82.85 10.6052 82.779 11.0548 82.8213 11.53C82.8637 12.0056 83.0132 12.4377 83.2796 12.8115L83.2795 12.8116L83.2841 12.8178C83.5405 13.1661 83.8653 13.4378 84.2534 13.6285Z" stroke="#006AA7"/>
<path d="M100.945 16.0814L100.943 16.0803C100.183 15.6606 99.5383 15.1255 99.0135 14.4747L99.0104 14.4709L99.0104 14.4709C98.4976 13.8221 98.126 13.0922 97.8961 12.2852L97.8943 12.279L97.8944 12.279C97.6737 11.4649 97.6278 10.6096 97.7502 9.71831C97.8726 8.82702 98.1473 8.01574 98.5793 7.29126L98.5826 7.28577L98.5826 7.28579C99.0228 6.56866 99.5842 5.96582 100.265 5.48073C100.946 4.99545 101.711 4.65408 102.556 4.45478L102.671 4.94142L102.556 4.45478C102.862 4.38257 103.174 4.33201 103.49 4.30283C103.103 4.22906 102.771 4.03713 102.515 3.73169L102.507 3.72237L102.507 3.72228C102.225 3.36989 102.131 2.94678 102.192 2.49935C102.254 2.05191 102.458 1.66989 102.825 1.40651L102.835 1.39941L102.835 1.39953C103.191 1.15617 103.597 1.06447 104.025 1.1233C104.454 1.18217 104.819 1.38017 105.089 1.7174C105.371 2.0698 105.465 2.4929 105.403 2.94033C105.342 3.38777 105.137 3.76979 104.771 4.03317C104.616 4.14421 104.451 4.22422 104.278 4.27397C104.59 4.27937 104.906 4.3042 105.226 4.3482C105.547 4.39221 105.857 4.45297 106.157 4.53072C106.004 4.43641 105.868 4.31538 105.75 4.16762C105.468 3.81523 105.374 3.39212 105.435 2.94469C105.497 2.49725 105.701 2.11523 106.068 1.85185M100.945 16.0814L106.068 1.85185M100.945 16.0814C101.72 16.5045 102.579 16.7782 103.518 16.9071C104.446 17.0345 105.332 17.0005 106.173 16.7981C107.016 16.5991 107.775 16.2629 108.445 15.7863L108.445 15.7862C109.126 15.3011 109.687 14.6982 110.127 13.9811L110.129 13.9788C110.573 13.2453 110.855 12.4285 110.978 11.5348C111.102 10.6321 111.051 9.77314 110.816 8.96439C110.585 8.15649 110.208 7.42571 109.684 6.77595C109.17 6.12542 108.529 5.59081 107.77 5.17123C107.498 5.01913 107.213 4.88648 106.916 4.77298C107.305 4.80456 107.672 4.70908 107.993 4.47984C108.37 4.22054 108.584 3.83897 108.646 3.38567C108.709 2.93238 108.605 2.5071 108.312 2.15583M100.945 16.0814L108.312 2.15583M106.068 1.85185C106.418 1.59981 106.823 1.50758 107.252 1.56645C107.679 1.62504 108.043 1.82147 108.312 2.15583M106.068 1.85185L108.312 2.15583M105.161 13.6529L105.161 13.6529L105.157 13.654C104.788 13.7493 104.384 13.7705 103.941 13.7096C103.497 13.6488 103.107 13.5186 102.765 13.3239C102.422 13.1286 102.135 12.8783 101.901 12.5713C101.678 12.2658 101.513 11.9154 101.407 11.5151C101.314 11.1108 101.297 10.6785 101.361 10.2141C101.426 9.737 101.56 9.32654 101.755 8.97549C101.964 8.61972 102.222 8.32788 102.529 8.09472C102.84 7.8593 103.18 7.69428 103.553 7.59752C103.935 7.50279 104.345 7.48271 104.787 7.54348C105.231 7.60435 105.621 7.73453 105.963 7.92925C106.306 8.12443 106.586 8.37308 106.808 8.67619L106.808 8.67623L106.813 8.68298C107.045 8.98921 107.21 9.33728 107.304 9.73268L107.304 9.7327L107.307 9.74286C107.409 10.1332 107.433 10.5634 107.367 11.039C107.302 11.5146 107.164 11.9226 106.96 12.2709L106.96 12.2708L106.955 12.28C106.757 12.6352 106.505 12.9261 106.199 13.1584C105.89 13.3925 105.546 13.5571 105.161 13.6529Z" stroke="#006AA7"/>
<path d="M112.476 17.9335L112.342 18.415L112.823 18.5498L115.245 19.2279L115.727 19.3626L115.862 18.8812L119.087 7.35927L119.222 6.87778L118.74 6.743L116.318 6.0649L115.836 5.93011L115.702 6.4116L112.476 17.9335Z" stroke="#006AA7"/>
<path d="M119.644 20.4861L119.644 20.4861L119.651 20.4916C120.261 20.9309 120.93 21.2947 121.655 21.5837C122.503 21.9213 123.293 22.1034 124.02 22.1071C124.742 22.1147 125.389 21.9756 125.935 21.6606L125.935 21.6606L125.94 21.6574C126.492 21.3299 126.891 20.8583 127.13 20.2583C127.335 19.7441 127.42 19.2395 127.329 18.7658C127.25 18.3279 127.072 17.9342 126.795 17.5936C126.552 17.2727 126.255 16.9865 125.908 16.7335C125.579 16.4928 125.238 16.2776 124.886 16.0882C124.576 15.9086 124.294 15.7347 124.04 15.5667C123.803 15.4107 123.645 15.2715 123.548 15.1535C123.54 15.1427 123.536 15.1359 123.535 15.1332C123.535 15.1328 123.535 15.1326 123.535 15.1323C123.535 15.1318 123.535 15.131 123.535 15.1301C123.536 15.1256 123.538 15.1152 123.545 15.0981C123.552 15.0783 123.56 15.0699 123.573 15.0609C123.591 15.0486 123.635 15.0255 123.729 15.0115C123.889 14.9874 124.194 15.0272 124.691 15.2253C125.023 15.3574 125.351 15.535 125.676 15.7602L125.683 15.7644L125.689 15.7684C126.004 15.9737 126.297 16.2457 126.564 16.5911L126.901 17.0258L127.302 16.6496L128.743 15.2971L129.071 14.9895L128.8 14.6309C128.469 14.1937 128.018 13.7935 127.464 13.4249C126.915 13.0602 126.349 12.761 125.766 12.5287C124.944 12.2015 124.165 12.0309 123.435 12.0381C122.719 12.0352 122.076 12.1836 121.528 12.5088L121.528 12.5087L121.521 12.513C120.98 12.8464 120.588 13.3249 120.348 13.9288C120.143 14.4416 120.053 14.9424 120.125 15.4141L120.125 15.4141L120.127 15.4265C120.205 15.8665 120.382 16.2652 120.654 16.6155C120.907 16.94 121.209 17.229 121.558 17.4835L121.557 17.4837L121.569 17.4913C121.897 17.7176 122.226 17.9268 122.558 18.1189L122.56 18.1199C122.886 18.3072 123.181 18.4819 123.446 18.6443C123.687 18.7921 123.833 18.9213 123.912 19.0237L123.923 19.0372L123.934 19.0499C123.938 19.0546 123.941 19.0586 123.944 19.062C123.931 19.093 123.919 19.104 123.909 19.1108C123.896 19.1201 123.861 19.1399 123.783 19.1507L123.783 19.1506L123.773 19.152C123.645 19.1721 123.349 19.1338 122.819 18.9228C122.376 18.7463 121.945 18.5016 121.526 18.1854C121.116 17.8601 120.792 17.5295 120.546 17.1956L120.21 16.7411L119.8 17.129L118.353 18.4964L118.043 18.789L118.283 19.1412C118.594 19.5995 119.056 20.0464 119.644 20.4861Z" stroke="#006AA7"/>
<path d="M129.503 24.1427L129.503 24.1428L129.504 24.1476C129.811 25.0243 130.494 25.7146 131.464 26.242C131.836 26.4448 132.22 26.5995 132.613 26.7043L132.613 26.7044L132.623 26.7069C133.037 26.8081 133.439 26.8419 133.822 26.7964L134.208 26.7507L134.259 26.3664L134.512 24.4846L134.601 23.8189L133.938 23.9243C133.712 23.9601 133.474 23.9212 133.209 23.7767C133.01 23.6683 132.929 23.5549 132.896 23.4482C132.867 23.3339 132.877 23.1717 133.007 22.9329L134.456 20.27L135.915 21.0636L136.354 21.3026L136.593 20.8633L137.517 19.1636L137.756 18.7244L137.317 18.4854L135.858 17.6918L136.629 16.2754L136.868 15.8362L136.429 15.5973L134.219 14.3952L133.78 14.1562L133.541 14.5955L132.77 16.0118L132.034 15.6112L131.594 15.3723L131.356 15.8115L130.431 17.5112L130.192 17.9505L130.631 18.1894L131.368 18.59L129.904 21.2812C129.367 22.2679 129.196 23.2361 129.503 24.1427Z" stroke="#006AA7"/>
<path d="M137.216 29.1957L137.217 29.199C137.552 29.8376 138.043 30.3877 138.678 30.8526C139.278 31.293 139.939 31.5674 140.654 31.6671L140.654 31.6671L140.657 31.6676C140.701 31.6734 140.744 31.6784 140.788 31.6826L140.523 32.0449L140.926 32.3405L142.851 33.7514L143.254 34.047L143.549 33.6437L148.678 26.6469L148.974 26.2436L148.571 25.948L146.542 24.4608L146.138 24.1653L145.843 24.5685L143.307 28.0279C143.027 28.4101 142.752 28.6546 142.489 28.7941C142.229 28.9275 141.987 28.9714 141.754 28.9462C141.51 28.9104 141.263 28.8089 141.011 28.624C140.648 28.3581 140.491 28.0834 140.455 27.8007C140.433 27.5192 140.551 27.1245 140.94 26.593L143.619 22.9385L143.915 22.5352L143.511 22.2397L141.483 20.7525L141.079 20.4569L140.784 20.8602L137.886 24.8138C137.326 25.5775 136.972 26.3399 136.865 27.098L136.865 27.098L136.864 27.1018C136.766 27.8424 136.882 28.5455 137.216 29.1957Z" stroke="#006AA7"/>
<path d="M156.962 33.8325L156.609 34.1786C156.592 34.1039 156.572 34.0293 156.55 33.9551C156.346 33.2559 155.955 32.621 155.395 32.0501C154.778 31.422 154.075 30.9744 153.287 30.7202L153.287 30.7202L153.284 30.7191C152.501 30.4727 151.698 30.4402 150.884 30.6186L150.884 30.6186L150.881 30.6191C150.061 30.8029 149.319 31.2332 148.657 31.8827C148.001 32.5258 147.559 33.2582 147.352 34.0788L147.352 34.0787L147.349 34.0885C147.164 34.8903 147.182 35.6901 147.403 36.48L147.403 36.48L147.406 36.4895C147.645 37.2827 148.079 37.9942 148.695 38.6222C149.254 39.192 149.879 39.5954 150.573 39.8123C150.293 39.9771 150.034 40.0425 149.794 40.037L149.794 40.0369L149.787 40.0369C149.417 40.0333 148.943 39.8191 148.359 39.2232C148.014 38.872 147.717 38.4524 147.47 37.9598L147.47 37.9598L147.467 37.9545C147.222 37.4798 147.091 37.0473 147.056 36.654L147.004 36.055L146.425 36.2155L144.435 36.7665L144.026 36.8801L144.072 37.3027C144.151 38.0231 144.407 38.7445 144.823 39.4643C145.234 40.1907 145.74 40.8604 146.341 41.4731C147.494 42.6481 148.72 43.3255 150.017 43.3989C151.34 43.4739 152.612 42.8441 153.82 41.659L158.977 36.6001L159.334 36.25L158.984 35.893L157.312 34.1894L156.962 33.8325ZM154.094 36.2038L154.094 36.2038L154.092 36.2111C154.031 36.4624 153.889 36.7119 153.637 36.9591C153.395 37.1968 153.141 37.3376 152.873 37.4018C152.601 37.4671 152.326 37.4578 152.041 37.3684C151.762 37.2716 151.493 37.0989 151.232 36.8334C150.972 36.5679 150.804 36.2949 150.713 36.0149C150.629 35.7269 150.621 35.4463 150.686 35.1649C150.756 34.9006 150.901 34.6512 151.141 34.4154C151.393 34.1688 151.644 34.0317 151.896 33.9749C152.179 33.9146 152.454 33.9314 152.732 34.0269L152.731 34.027L152.743 34.0308C153.027 34.1206 153.298 34.2886 153.557 34.5526C153.816 34.8166 153.979 35.0912 154.063 35.3765L154.063 35.3765L154.067 35.3883C154.157 35.666 154.164 35.934 154.094 36.2038Z" stroke="#006AA7"/>
<path d="M157.751 49.4785C157.757 49.4811 157.763 49.4836 157.769 49.4862L157.453 49.7115L157.743 50.1184L159.111 52.0348L159.401 52.4418L159.808 52.1513L163.838 49.2757C164.986 48.4561 165.685 47.476 165.784 46.3239C165.881 45.2102 165.477 44.0768 164.665 42.94C164.24 42.3435 163.741 41.8126 163.171 41.3482L162.886 41.6981L163.171 41.3482C162.598 40.8822 162.008 40.5363 161.398 40.3224L160.987 40.1785L160.788 40.5649L159.882 42.321L159.602 42.8621L160.188 43.0307C160.503 43.1215 160.825 43.2848 161.154 43.5317L161.154 43.5317L161.16 43.5361C161.503 43.7855 161.791 44.0756 162.027 44.4068C162.385 44.9084 162.476 45.2748 162.442 45.5339L162.442 45.5339L162.441 45.542C162.424 45.6914 162.373 45.8362 162.276 45.9766L161.45 44.8188C160.918 44.0732 160.367 43.5015 159.791 43.139C159.235 42.7781 158.658 42.5819 158.068 42.6006L158.068 42.6005L158.058 42.601C157.493 42.6301 156.963 42.8302 156.475 43.1783C155.998 43.5191 155.647 43.9595 155.436 44.4944C155.225 45.0308 155.179 45.6101 155.28 46.2183L155.28 46.2183L155.282 46.2272C155.395 46.8405 155.677 47.4455 156.102 48.0408C156.58 48.7107 157.126 49.2065 157.751 49.4785ZM160.312 47.4726L160.079 47.6391C159.812 47.6917 159.572 47.666 159.345 47.5709C159.084 47.4514 158.855 47.2624 158.66 46.9883C158.446 46.6883 158.371 46.4541 158.367 46.2765C158.376 46.1275 158.434 46.0201 158.572 45.9218C158.691 45.8366 158.804 45.8129 158.944 45.8425C159.049 45.8711 159.273 46.0165 159.601 46.4752L160.312 47.4726Z" stroke="#006AA7"/>
<path d="M170.694 53.8251L171.126 53.608L170.901 53.1614L169.822 51.0149L169.597 50.5683L169.15 50.7929L161.4 54.691L160.953 54.9157L161.178 55.3624L162.308 57.6097L162.533 58.0563L162.98 57.8317L166.812 55.9043C167.245 55.6862 167.598 55.596 167.879 55.594C168.176 55.6017 168.409 55.682 168.601 55.8209L168.601 55.8209L168.606 55.8246C168.832 55.984 169.019 56.2014 169.164 56.49C169.368 56.8963 169.377 57.2059 169.277 57.4615L169.277 57.4615L169.274 57.4697C169.179 57.7292 168.915 58.0227 168.346 58.3091L164.255 60.3668L163.808 60.5915L164.033 61.0382L165.163 63.2854L165.388 63.7321L165.835 63.5075L170.271 61.2758C171.107 60.8556 171.758 60.3439 172.18 59.7228C172.601 59.1112 172.817 58.4413 172.811 57.7237C172.819 57.0293 172.646 56.3422 172.306 55.6676C171.941 54.9406 171.453 54.3529 170.838 53.9212C170.79 53.888 170.743 53.8559 170.694 53.8251Z" stroke="#006AA7"/>
<path d="M169.552 74.7987L169.065 74.9126L169.179 75.3995L169.774 77.943L169.888 78.4298L170.375 78.3159L178.806 76.3426L179.516 79.3728L179.63 79.8596L180.116 79.7457L182.189 79.2606L182.676 79.1467L182.562 78.6598L180.32 69.0823L180.206 68.5955L179.72 68.7094L177.647 69.1945L177.16 69.3084L177.274 69.7953L177.983 72.8254L169.552 74.7987Z" stroke="#006AA7"/>
<path d="M171.462 85.7616L171.461 85.7651C171.193 86.4344 171.096 87.1659 171.155 87.9499C171.212 88.6927 171.434 89.3726 171.823 89.9803L171.823 89.9803L171.825 89.9831C171.849 90.0201 171.874 90.0566 171.899 90.0924L171.451 90.1266L171.489 90.6251L171.67 93.0047L171.708 93.5033L172.207 93.4653L180.857 92.8057L181.356 92.7677L181.318 92.2692L181.126 89.7609L181.088 89.2624L180.59 89.3004L176.313 89.6265C175.84 89.6625 175.476 89.6126 175.199 89.5042C174.928 89.3931 174.737 89.2382 174.605 89.0449C174.473 88.8364 174.39 88.583 174.366 88.2711C174.332 87.8228 174.438 87.5247 174.629 87.3131C174.829 87.1136 175.205 86.9458 175.862 86.8957L180.38 86.5512L180.879 86.5132L180.841 86.0147L180.649 83.5064L180.611 83.0079L180.113 83.0459L175.225 83.4186C174.281 83.4906 173.471 83.7177 172.826 84.1301L172.826 84.1301L172.823 84.1322C172.197 84.5396 171.738 85.0848 171.462 85.7616Z" stroke="#006AA7"/>
<path d="M172.07 96.4959L171.571 96.4733L171.548 96.9728L171.434 99.4858L171.412 99.9853L171.911 100.008L183.864 100.549L184.363 100.571L184.386 100.072L184.499 97.5587L184.522 97.0592L184.023 97.0366L172.07 96.4959Z" stroke="#006AA7"/>
<path d="M171.655 103.006L171.159 102.943L171.096 103.439L170.776 105.934L170.712 106.43L171.208 106.493L183.076 108.015L183.572 108.079L183.635 107.583L183.955 105.088L184.019 104.592L183.523 104.528L171.655 103.006Z" stroke="#006AA7"/>
<path d="M170.361 111.33L170.359 111.333C169.741 112.038 169.31 112.911 169.054 113.935C168.852 114.745 168.791 115.51 168.884 116.225L168.884 116.225L168.885 116.233C168.99 116.946 169.233 117.59 169.622 118.153L169.878 118.524L170.274 118.308L172.006 117.361L172.082 117.319L171.696 118.866L171.587 119.305L172.013 119.457C172.116 119.494 172.224 119.533 172.338 119.572L172.341 119.573C172.473 119.618 172.595 119.655 172.706 119.683C173.682 119.926 174.601 119.934 175.446 119.679C176.286 119.431 176.998 118.98 177.571 118.328C178.15 117.693 178.547 116.921 178.77 116.027C179.002 115.099 179.009 114.2 178.779 113.339C178.561 112.485 178.14 111.742 177.519 111.118L177.519 111.118L177.517 111.117C176.895 110.498 176.114 110.079 175.193 109.849C174.278 109.621 173.389 109.631 172.539 109.893L172.539 109.893L172.536 109.894C171.697 110.158 170.972 110.642 170.361 111.33ZM173.105 113.22L172.23 116.726L172.199 116.673C172.029 116.377 171.926 116.075 171.886 115.766L171.886 115.766L171.885 115.76C171.844 115.47 171.865 115.128 171.965 114.728C172.074 114.288 172.242 113.945 172.455 113.682C172.641 113.471 172.857 113.319 173.105 113.22ZM174.818 116.55C174.818 116.55 174.817 116.55 174.817 116.551L175.52 113.732C175.739 113.93 175.877 114.156 175.949 114.414L175.949 114.414L175.95 114.419C176.03 114.695 176.035 114.998 175.95 115.34C175.864 115.682 175.719 115.939 175.526 116.132L175.526 116.132L175.518 116.141C175.328 116.341 175.099 116.476 174.818 116.55L174.946 117.034L174.818 116.55Z" stroke="#006AA7"/>
<path d="M174.413 127.561L174.858 127.75L175.052 127.289L175.989 125.077L176.184 124.616L175.724 124.421L167.735 121.039L167.274 120.844L167.079 121.305L166.099 123.621L165.904 124.082L166.364 124.277L170.314 125.949C170.761 126.138 171.058 126.348 171.242 126.562C171.428 126.792 171.518 127.022 171.536 127.258L171.536 127.258L171.537 127.265C171.561 127.54 171.517 127.823 171.391 128.121C171.213 128.539 170.983 128.746 170.724 128.836L170.724 128.836L170.716 128.839C170.456 128.934 170.062 128.924 169.475 128.675L165.258 126.89L164.797 126.695L164.603 127.155L163.622 129.472L163.427 129.932L163.887 130.127L168.461 132.063C169.322 132.428 170.133 132.593 170.88 132.512C171.619 132.437 172.269 132.168 172.812 131.699C173.347 131.256 173.758 130.678 174.052 129.983C174.37 129.233 174.502 128.481 174.432 127.733C174.427 127.675 174.42 127.618 174.413 127.561Z" stroke="#006AA7"/>
<path d="M160.422 140.328L160.413 140.332L160.404 140.337C160.006 140.532 159.677 140.817 159.42 141.183C159.164 141.55 159.01 141.955 158.97 142.391L158.97 142.391L158.97 142.397C158.934 142.838 159.004 143.262 159.18 143.662L159.18 143.662L159.183 143.669C159.374 144.087 159.674 144.432 160.065 144.705C160.456 144.979 160.882 145.141 161.336 145.171C161.772 145.199 162.191 145.116 162.586 144.925C162.991 144.744 163.324 144.464 163.582 144.096C163.841 143.725 163.992 143.311 164.028 142.863C164.067 142.432 163.998 142.015 163.823 141.617L163.384 141.81L163.823 141.617C163.639 141.2 163.341 140.857 162.95 140.583C162.559 140.309 162.132 140.146 161.675 140.109L161.675 140.109L161.667 140.108C161.235 140.08 160.818 140.154 160.422 140.328Z" stroke="#006AA7"/>
<path d="M149.505 150.104L149.154 149.748L148.798 150.099L146.938 151.932L146.582 152.283L146.933 152.64L154.857 160.678L155.208 161.034L155.564 160.683L159.032 157.264L159.388 156.913L159.037 156.557L157.566 155.064L157.215 154.708L156.859 155.059L155.607 156.293L149.505 150.104Z" stroke="#006AA7"/>
<path d="M142.773 155.981L142.773 155.981L142.767 155.982C141.959 156.208 141.159 156.63 140.367 157.231C139.567 157.837 138.939 158.496 138.503 159.212L138.503 159.212L138.501 159.216C138.065 159.944 137.83 160.689 137.823 161.445L137.823 161.445L137.823 161.45C137.824 162.225 138.075 162.938 138.559 163.577C139.041 164.213 139.65 164.637 140.382 164.813C140.67 164.889 140.966 164.925 141.268 164.925C141.246 165.067 141.234 165.209 141.231 165.351C141.217 166.062 141.444 166.717 141.889 167.305C142.351 167.915 142.936 168.326 143.639 168.508C144.322 168.699 145.044 168.679 145.792 168.47C146.545 168.274 147.287 167.889 148.02 167.334C148.738 166.79 149.304 166.183 149.703 165.508C150.108 164.843 150.324 164.151 150.323 163.441C150.33 162.721 150.088 162.052 149.627 161.444C149.184 160.858 148.621 160.46 147.944 160.273L147.944 160.273L147.931 160.27C147.793 160.236 147.653 160.211 147.512 160.194C147.594 159.903 147.641 159.608 147.649 159.309L147.649 159.308C147.669 158.561 147.421 157.864 146.94 157.228C146.456 156.59 145.838 156.155 145.092 155.944L145.092 155.944L145.087 155.943C144.359 155.745 143.584 155.765 142.773 155.981ZM141.337 160.578L141.337 160.578L141.339 160.572C141.425 160.254 141.662 159.911 142.129 159.557C142.587 159.211 142.976 159.078 143.307 159.081C143.616 159.084 143.865 159.205 144.083 159.493C144.302 159.781 144.346 160.046 144.263 160.33L144.263 160.33L144.26 160.339C144.173 160.659 143.94 160.997 143.483 161.344C143.015 161.698 142.622 161.833 142.292 161.83L142.284 161.83L142.276 161.83C141.97 161.837 141.728 161.724 141.513 161.44C141.298 161.156 141.249 160.884 141.337 160.578ZM144.543 164.376L144.543 164.376L144.545 164.368C144.607 164.127 144.787 163.856 145.167 163.568C145.537 163.287 145.842 163.19 146.094 163.195C146.325 163.201 146.516 163.293 146.692 163.525C146.883 163.777 146.918 163.994 146.856 164.218C146.784 164.478 146.605 164.744 146.258 165.007C145.899 165.279 145.591 165.381 145.323 165.379L145.323 165.379L145.315 165.379C145.074 165.382 144.874 165.29 144.687 165.044C144.515 164.816 144.479 164.608 144.543 164.376Z" stroke="#006AA7"/>
<path d="M131.792 168.2C131.671 168.331 131.559 168.467 131.457 168.608C131.373 168.191 131.388 167.819 131.484 167.488L131.484 167.488L131.486 167.484C131.664 166.847 132.095 166.321 132.85 165.914C133.16 165.747 133.47 165.619 133.78 165.527C134.069 165.452 134.37 165.431 134.686 165.465L135.256 165.528L135.24 164.955L135.181 162.806L135.169 162.358L134.722 162.322C134.182 162.278 133.616 162.341 133.026 162.5C132.444 162.657 131.876 162.885 131.323 163.183C130.258 163.758 129.422 164.494 128.837 165.4C128.25 166.309 127.96 167.328 127.962 168.444C127.955 169.576 128.291 170.745 128.938 171.944C129.544 173.068 130.254 173.938 131.083 174.521C131.91 175.109 132.815 175.422 133.787 175.446L133.799 174.965L133.787 175.446C134.757 175.47 135.734 175.204 136.713 174.676C137.463 174.272 138.082 173.746 138.558 173.096C139.033 172.458 139.318 171.752 139.403 170.985L139.403 170.985L139.404 170.978C139.481 170.194 139.302 169.42 138.894 168.664C138.518 167.965 138.008 167.427 137.359 167.075L137.359 167.075L137.353 167.071C136.712 166.735 136.021 166.579 135.288 166.601L135.288 166.601L135.285 166.601C134.543 166.63 133.823 166.837 133.128 167.211C132.609 167.491 132.163 167.817 131.8 168.192L131.8 168.192L131.792 168.2ZM133.738 172.251C133.665 172.212 133.598 172.163 133.535 172.103L133.564 172.111L133.308 171.791C133.206 171.593 133.167 171.4 133.179 171.204C133.192 171.002 133.262 170.801 133.407 170.594C133.545 170.404 133.743 170.232 134.018 170.084C134.447 169.853 134.807 169.8 135.118 169.863C135.412 169.938 135.648 170.119 135.833 170.461C135.958 170.693 135.998 170.895 135.983 171.078L135.983 171.078L135.982 171.087C135.969 171.293 135.902 171.475 135.775 171.644L135.77 171.65L135.765 171.657C135.639 171.837 135.447 172.006 135.171 172.155C134.853 172.327 134.584 172.398 134.356 172.402L134.349 172.402L134.341 172.402C134.111 172.413 133.923 172.363 133.76 172.264L133.749 172.257L133.738 172.251Z" stroke="#006AA7"/>
<path d="M124.387 167.549L124.217 167.079L123.747 167.249L115.725 170.151L115.255 170.321L115.425 170.792L116.149 172.793L116.32 173.263L116.79 173.093L120.174 171.869L119.131 173.933C119.13 173.934 119.13 173.934 119.13 173.934C118.795 174.594 118.556 175.184 118.426 175.698C118.289 176.205 118.233 176.682 118.281 177.121C118.318 177.538 118.406 177.939 118.545 178.323C118.809 179.053 119.235 179.639 119.833 180.05C120.41 180.457 121.091 180.674 121.856 180.716C122.62 180.772 123.425 180.638 124.263 180.335C125.272 179.97 126.115 179.452 126.776 178.772L126.422 178.428L126.776 178.772C127.431 178.098 127.872 177.336 128.08 176.488L128.202 175.995L127.706 175.881L125.5 175.376L125.038 175.27L124.908 175.726C124.799 176.109 124.619 176.414 124.375 176.655C124.107 176.913 123.786 177.112 123.404 177.25C122.903 177.432 122.57 177.432 122.356 177.356L122.347 177.353L122.338 177.35C122.138 177.287 121.978 177.149 121.869 176.846C121.831 176.742 121.804 176.607 121.797 176.432L121.797 176.419L121.795 176.407C121.783 176.267 121.797 176.074 121.857 175.82C121.911 175.591 122.032 175.285 122.239 174.893L122.24 174.893L122.244 174.884L124.939 169.536L125.036 169.344L124.963 169.141L124.387 167.549Z" stroke="#006AA7"/>
<path d="M106.036 175.17L106.027 175.166L106.017 175.162C105.602 175.007 105.169 174.963 104.727 175.028C104.284 175.093 103.884 175.259 103.539 175.53L103.539 175.53L103.535 175.533C103.19 175.81 102.929 176.151 102.758 176.554L102.758 176.554L102.755 176.561C102.583 176.987 102.538 177.442 102.607 177.914C102.677 178.386 102.85 178.807 103.14 179.158C103.419 179.494 103.767 179.742 104.177 179.898C104.587 180.069 105.019 180.119 105.464 180.054C105.912 179.988 106.316 179.814 106.667 179.532C107.007 179.266 107.263 178.928 107.432 178.528L106.972 178.333L107.432 178.528C107.609 178.109 107.655 177.656 107.585 177.184C107.516 176.711 107.342 176.288 107.055 175.93L107.055 175.93L107.05 175.924C106.774 175.591 106.435 175.338 106.036 175.17Z" stroke="#006AA7"/>
</g>
</svg>
